<?xml version="1.0" standalone="no"?>
<!DOCTYPE svg PUBLIC "-//W3C//DTD SVG 20010904//EN"
 "http://www.w3.org/TR/2001/REC-SVG-20010904/DTD/svg10.dtd">
<svg version="1.0" xmlns="http://www.w3.org/2000/svg"
 width="1168.000000pt" height="1168.000000pt" viewBox="0 0 1168.000000 1168.000000"
 preserveAspectRatio="xMidYMid meet">
<metadata>
Created by potrace 1.14, written by Peter Selinger 2001-2017
</metadata>
<g transform="translate(0.000000,1168.000000) scale(0.100000,-0.100000)"
fill="#000000" stroke="none">
<path d="M6798 9588 c-5 -14 15 -38 30 -38 5 0 57 -32 116 -71 128 -84 272
-218 263 -243 -5 -13 -15 -16 -37 -12 -16 2 -30 0 -30 -5 0 -6 -7 -6 -19 0
-10 6 -21 8 -23 5 -3 -2 -43 -7 -89 -9 -121 -7 -190 -13 -224 -20 -16 -3 -55
-10 -85 -16 -30 -6 -68 -12 -85 -14 -25 -3 -247 -58 -280 -69 -5 -2 -14 -5
-20 -6 -175 -49 -447 -175 -693 -324 -79 -47 -147 -86 -153 -86 -5 0 -9 -4 -9
-8 0 -4 -22 -19 -50 -33 -27 -13 -50 -27 -50 -31 0 -5 -4 -8 -9 -8 -9 0 -127
-64 -181 -99 -14 -8 -27 -16 -30 -16 -3 -1 -21 -9 -40 -20 -77 -42 -156 -76
-238 -105 -98 -33 -189 -57 -282 -75 -14 -3 -36 -7 -49 -10 -12 -2 -42 -7 -65
-9 -22 -3 -54 -8 -70 -11 -26 -5 -102 -13 -147 -14 -9 -1 -20 -8 -23 -16 -4
-12 7 -21 40 -35 25 -11 55 -22 67 -25 12 -2 40 -9 62 -15 22 -5 63 -13 90
-16 28 -4 59 -9 70 -13 26 -8 242 -7 325 3 53 6 157 26 260 51 8 2 51 16 96
32 83 30 104 31 104 8 0 -11 -124 -78 -220 -118 -38 -16 -177 -61 -225 -73
-16 -4 -34 -8 -40 -10 -5 -2 -38 -8 -72 -14 -77 -15 -87 -43 -20 -56 12 -2 33
-6 47 -9 62 -14 103 -18 210 -18 300 0 504 59 1070 311 19 9 37 16 40 17 3 0
31 13 64 28 32 15 65 27 72 27 8 0 14 5 14 10 0 6 5 10 11 10 10 0 52 18 224
94 93 42 96 43 170 71 39 14 79 31 90 36 12 6 27 11 35 13 8 2 22 6 30 9 20 8
94 31 100 32 3 0 19 5 35 11 17 7 59 20 95 29 36 9 76 21 90 26 136 45 413 67
555 45 224 -36 333 -81 550 -227 55 -37 104 -65 108 -62 5 3 6 19 3 35 -8 38
-83 202 -116 253 -15 22 -29 47 -32 55 -7 19 -96 139 -151 203 -47 56 -173
180 -227 224 -19 15 -36 31 -38 36 -2 4 -10 7 -18 7 -8 0 -14 4 -14 8 0 5 -12
15 -27 23 -16 8 -30 16 -33 20 -35 38 -295 169 -435 219 -49 18 -97 35 -105
38 -8 3 -19 7 -25 8 -5 1 -13 3 -17 4 -5 1 -11 3 -15 4 -5 2 -26 7 -48 14 -22
6 -51 13 -65 16 -14 3 -36 7 -50 10 -50 11 -134 26 -146 26 -7 0 -14 -6 -16
-12z"/>
<path d="M5558 9295 c-2 -2 -34 -6 -72 -9 -59 -6 -110 -14 -191 -32 -11 -2
-29 -6 -40 -8 -92 -19 -271 -76 -380 -121 -59 -25 -40 -51 35 -46 108 8 204
-2 297 -30 69 -22 80 -31 59 -52 -34 -34 -411 -180 -456 -176 -3 0 -18 -4 -33
-10 -15 -6 -42 -13 -60 -16 -18 -3 -43 -8 -57 -10 -92 -19 -138 -25 -300 -39
-25 -3 -81 -8 -125 -12 -44 -4 -88 -7 -97 -8 -10 0 -18 -3 -18 -6 0 -3 -17 -5
-38 -6 -20 0 -62 -4 -93 -8 -53 -6 -68 -9 -129 -21 -14 -2 -43 -7 -65 -10 -53
-7 -82 -13 -107 -21 -11 -3 -30 -8 -41 -9 -12 -2 -40 -9 -62 -15 -22 -6 -51
-13 -64 -16 -14 -3 -28 -7 -33 -10 -4 -3 -16 -7 -26 -9 -14 -2 -178 -61 -232
-82 -8 -4 -17 -7 -20 -8 -27 -7 -265 -126 -328 -163 -29 -18 -57 -32 -62 -32
-15 0 -51 -53 -42 -62 5 -5 28 -5 53 1 151 33 442 31 455 -4 4 -8 -29 -48 -80
-99 -47 -47 -86 -87 -86 -89 0 -3 -19 -25 -42 -49 -24 -25 -50 -55 -58 -68 -8
-12 -25 -33 -37 -46 -12 -13 -34 -41 -50 -61 -50 -68 -76 -97 -180 -203 -57
-57 -103 -110 -103 -117 0 -27 33 -32 74 -11 118 60 331 228 538 423 123 116
223 195 246 195 6 0 12 3 14 8 4 10 51 37 123 71 86 41 104 45 111 27 7 -18
-39 -78 -154 -205 -43 -46 -79 -88 -81 -93 -8 -22 23 -24 62 -6 42 20 137 77
147 88 3 3 30 21 60 40 30 19 57 37 60 40 11 14 219 150 285 187 82 46 227
106 305 127 139 37 393 116 465 146 17 7 39 16 50 20 153 58 447 199 585 280
28 17 55 30 60 30 4 0 10 4 12 8 2 4 32 26 68 47 36 21 94 58 130 82 51 35
197 113 220 119 3 0 19 6 35 13 17 7 42 15 58 18 15 3 30 10 33 14 3 5 9 7 14
4 13 -8 20 23 7 33 -13 11 -150 48 -212 57 -23 3 -52 8 -65 11 -26 6 -337 14
-342 9z"/>
<path d="M8832 8823 c-8 -17 -17 -46 -28 -98 -25 -116 -23 -280 5 -387 56
-216 186 -392 391 -531 14 -9 63 -44 110 -77 47 -33 93 -65 104 -72 10 -7 24
-19 32 -25 7 -7 15 -13 19 -13 5 0 78 -52 111 -78 5 -5 20 -14 31 -21 32 -16
38 16 18 87 -48 171 -148 349 -265 472 -26 28 -177 194 -205 225 -43 49 -131
176 -166 240 -38 69 -110 235 -102 235 3 0 0 7 -7 15 -7 8 -9 15 -5 15 4 0 2
7 -5 15 -16 20 -27 19 -38 -2z"/>
<path d="M8588 8547 c-31 -31 -74 -137 -106 -257 -2 -8 -5 -60 -7 -115 -2 -55
-4 -103 -4 -107 -2 -17 -26 -6 -94 45 -62 46 -153 109 -223 155 -54 35 -239
114 -296 126 -13 3 -41 10 -63 16 -53 14 -81 18 -195 26 -110 7 -97 7 -180 1
-112 -9 -308 -56 -377 -92 -15 -8 -31 -15 -35 -15 -19 0 -278 -117 -538 -242
-313 -151 -339 -163 -495 -220 -182 -66 -331 -107 -445 -123 -87 -12 -105 -16
-114 -26 -20 -19 13 -33 109 -44 22 -3 56 -7 75 -10 165 -23 491 -23 620 -1
14 3 48 7 75 11 41 5 121 21 245 50 8 1 74 20 145 40 72 20 137 38 145 41 8 2
65 17 125 34 61 17 117 33 125 35 8 2 42 12 75 21 33 9 67 18 75 20 8 2 40 10
70 18 30 9 78 19 105 23 67 10 339 9 395 -1 25 -5 51 -9 58 -9 6 0 12 -3 12
-7 0 -3 8 -6 18 -7 19 -2 22 -2 110 -28 34 -9 62 -22 62 -26 0 -5 6 -9 14 -9
8 0 78 -31 155 -70 78 -38 143 -70 145 -70 2 0 34 -14 72 -32 38 -17 71 -32
74 -33 3 -1 16 -6 30 -12 14 -6 57 -23 95 -38 39 -15 79 -31 90 -36 11 -4 97
-33 190 -64 94 -31 177 -59 185 -62 8 -3 17 -7 20 -8 3 -1 19 -7 35 -14 17 -7
30 -12 30 -11 0 5 172 -91 225 -125 126 -83 134 -106 35 -99 -170 11 -216 15
-380 30 -33 2 -85 7 -115 9 -30 2 -94 7 -141 10 -119 9 -126 -7 -34 -73 47
-33 164 -133 228 -193 60 -57 77 -78 72 -92 -5 -13 -13 -16 -29 -11 -11 4 -30
8 -41 10 -11 1 -21 3 -22 4 -5 4 -15 6 -68 15 -27 4 -59 9 -70 12 -11 2 -38 6
-60 9 -22 3 -51 8 -65 10 -14 3 -77 7 -140 10 -144 6 -229 12 -256 18 -12 2
-39 7 -60 10 -103 17 -319 92 -529 186 -45 20 -249 87 -286 93 -13 3 -42 10
-64 15 -22 6 -56 14 -75 17 -19 3 -42 8 -50 10 -8 2 -37 7 -65 11 -27 3 -59 8
-70 10 -11 2 -36 6 -55 9 -19 3 -46 7 -60 10 -14 3 -45 8 -70 11 -25 3 -56 7
-70 10 -14 3 -38 7 -55 9 -16 2 -43 6 -60 8 -16 3 -52 9 -80 13 -27 3 -59 8
-70 10 -30 6 -134 22 -185 29 -25 3 -56 8 -70 10 -29 4 -172 24 -215 30 -16 2
-57 7 -90 10 -33 4 -71 8 -84 10 -167 27 -657 27 -791 0 -14 -3 -37 -7 -52
-10 -15 -3 -63 -16 -107 -30 -108 -34 -130 -66 -56 -79 167 -29 409 -68 445
-72 25 -3 56 -8 70 -11 14 -3 39 -7 55 -9 17 -1 50 -6 75 -9 67 -10 173 -22
270 -31 30 -3 120 -6 200 -7 80 -1 151 -6 157 -10 10 -6 6 -18 -13 -49 -14
-22 -22 -44 -17 -48 4 -5 59 -11 122 -14 63 -4 123 -8 135 -11 12 -3 39 -7 61
-9 75 -9 120 -18 230 -47 61 -16 118 -31 128 -34 62 -14 214 -121 238 -168 16
-28 -6 -39 -45 -22 -52 23 -64 27 -146 49 -67 18 -98 24 -170 32 -83 10 -260
10 -260 1 0 -5 -4 -6 -8 -3 -19 12 -241 -42 -347 -84 -11 -4 -36 -14 -55 -21
-40 -14 -205 -95 -263 -128 -152 -86 -275 -196 -447 -400 -35 -42 -22 -70 21
-47 30 15 156 59 219 76 51 14 70 18 119 26 18 3 43 8 55 10 37 8 298 19 316
14 3 0 25 -3 50 -5 81 -6 248 -53 277 -77 22 -18 2 -36 -50 -42 -229 -30 -489
-162 -666 -338 -53 -52 -139 -174 -179 -253 -27 -55 -82 -221 -89 -270 -3 -22
-9 -60 -13 -84 -4 -24 -6 -138 -5 -255 3 -205 6 -248 19 -311 4 -16 9 -49 11
-73 3 -24 9 -60 14 -80 5 -20 12 -53 15 -72 3 -19 15 -71 27 -115 11 -44 23
-91 26 -105 4 -22 19 -39 34 -40 8 0 18 25 64 168 20 63 44 130 53 150 8 20
16 42 18 48 7 39 134 301 184 381 66 104 143 186 213 228 49 28 126 40 133 21
3 -7 -10 -63 -27 -126 -17 -63 -32 -122 -34 -130 -1 -8 -5 -22 -8 -30 -8 -23
-36 -160 -43 -210 -7 -56 -7 -236 1 -270 3 -14 8 -49 11 -79 3 -30 8 -59 11
-64 3 -6 7 -20 9 -31 4 -31 61 -212 75 -238 7 -13 12 -25 12 -28 -1 -3 4 -18
11 -35 7 -16 16 -42 20 -57 3 -16 11 -28 16 -28 6 0 10 -7 10 -15 0 -13 41
-109 80 -185 33 -65 159 -358 164 -382 3 -13 12 -48 21 -78 8 -30 26 -111 40
-180 34 -171 34 -170 46 -170 16 0 39 26 39 44 0 9 5 16 10 16 6 0 10 6 10 13
0 7 9 32 20 55 11 22 20 47 20 55 0 7 4 17 8 22 7 8 36 95 34 102 0 2 4 17 9
35 40 132 57 406 35 563 -4 33 -10 74 -13 90 -15 89 -11 191 11 295 12 58 74
180 91 180 8 0 15 -3 16 -7 0 -5 2 -42 4 -83 4 -96 15 -195 29 -270 4 -19 8
-42 10 -50 13 -70 91 -271 108 -278 4 -2 8 -8 8 -14 0 -17 86 -142 140 -200
48 -54 72 -69 84 -50 3 6 -7 75 -18 117 -25 95 -26 242 -2 416 20 147 87 304
171 398 63 70 190 139 267 144 15 1 28 6 28 10 0 5 3 6 8 4 4 -3 41 -8 84 -11
139 -10 241 -64 363 -189 106 -109 175 -255 170 -358 -3 -70 -32 -143 -76
-193 -40 -45 -93 -84 -126 -91 -10 -2 -38 -10 -63 -18 -57 -18 -250 -15 -285
4 -9 5 -19 5 -51 1 -26 -4 -5 -39 70 -118 44 -46 86 -84 93 -84 7 0 13 -4 13
-9 0 -11 146 -97 180 -106 3 -1 12 -4 20 -8 125 -48 197 -56 523 -54 l307 1
25 -25 c36 -36 36 -82 -1 -224 -9 -33 -17 -64 -19 -70 -7 -31 -68 -179 -80
-195 -6 -8 -17 -27 -25 -42 -7 -16 -17 -28 -22 -28 -4 0 -8 -5 -8 -11 0 -29
-158 -197 -293 -312 -58 -49 -63 -68 -26 -88 12 -6 25 -6 37 0 9 5 31 11 47
14 81 15 272 90 390 152 202 108 433 291 510 407 75 111 105 160 105 167 0 5
4 11 9 13 20 7 241 461 241 494 0 8 5 14 12 14 6 0 9 3 5 6 -3 3 7 33 22 67
15 34 29 65 30 69 3 14 13 42 27 81 8 20 14 44 14 53 0 21 -27 29 -44 12 -9
-7 -22 -19 -31 -26 -24 -20 -137 -78 -170 -87 -16 -4 -34 -9 -40 -11 -78 -23
-227 -22 -287 1 -15 6 -68 77 -68 91 0 4 -6 15 -14 23 -40 46 -76 184 -79 296
-3 194 110 411 275 523 42 29 182 98 218 108 203 55 243 61 410 59 177 -3 201
-6 298 -37 71 -23 83 -39 86 -120 4 -78 -71 -258 -133 -325 -12 -12 -21 -25
-21 -30 0 -4 -12 -20 -27 -35 -22 -23 -25 -32 -16 -46 6 -9 15 -16 20 -15 5 1
32 4 59 7 63 6 187 34 230 52 19 8 36 14 39 14 16 0 123 55 182 93 72 47 120
91 179 162 37 46 43 75 17 96 -48 41 -49 112 -3 259 17 53 33 107 35 120 19
95 23 219 10 294 -11 61 -12 69 -24 112 -6 23 -8 49 -5 58 9 23 48 30 77 14
103 -55 207 -106 232 -113 17 -4 37 -10 45 -12 32 -9 112 -5 135 7 53 29 35
66 -158 324 -54 71 -162 203 -186 225 -34 33 -107 77 -226 141 -55 29 -106 58
-114 64 -8 6 -16 10 -18 8 -2 -1 -36 14 -76 35 -39 20 -74 37 -77 38 -3 0 -59
29 -125 62 -159 82 -163 92 -120 287 14 63 15 111 1 173 -14 65 -87 118 -216
158 -30 10 -93 31 -140 47 -47 16 -100 34 -118 39 -18 6 -56 22 -84 37 -46 24
-57 36 -88 97 -31 62 -105 176 -142 220 -44 51 -135 138 -185 176 -32 24 -60
46 -63 49 -9 9 -63 40 -135 76 -57 30 -180 100 -290 167 -37 22 -119 92 -150
126 -16 19 -35 39 -40 45 -44 45 -120 185 -144 266 -7 25 -16 52 -19 60 -9 27
-13 44 -37 180 -19 105 -33 131 -57 107z m1219 -2028 c120 -73 241 -147 269
-165 l51 -33 -3 -110 c-2 -61 -5 -115 -8 -120 -6 -9 -46 -3 -56 8 -5 6 -12 10
-89 53 -20 11 -38 23 -41 27 -3 3 -22 19 -42 34 -47 35 -113 100 -158 156 -19
24 -40 48 -45 55 -35 39 -125 194 -125 216 0 23 39 4 247 -121z m-1762 -133
c102 -9 165 -16 205 -22 19 -2 53 -7 75 -9 22 -3 65 -10 95 -15 30 -5 73 -12
95 -15 22 -4 48 -8 57 -11 10 -3 30 -7 45 -10 81 -13 390 -99 448 -123 11 -5
40 -17 65 -27 184 -73 448 -199 754 -359 55 -29 135 -70 176 -91 41 -21 77
-40 80 -43 3 -3 41 -24 85 -47 219 -111 285 -149 285 -166 0 -22 -1 -22 -80 3
-36 11 -76 22 -89 25 -13 3 -33 10 -43 15 -11 6 -22 8 -25 5 -3 -2 -17 0 -32
6 -14 5 -33 11 -41 13 -8 2 -45 10 -81 19 -109 25 -209 43 -283 51 -23 3 -59
7 -81 10 -89 13 -425 19 -530 11 -113 -9 -195 -17 -212 -20 -11 -3 -44 -7 -73
-11 -87 -11 -122 -18 -293 -61 -289 -72 -627 -214 -906 -379 -57 -35 -122 -88
-209 -172 -124 -121 -155 -139 -160 -96 -1 10 -3 25 -5 33 -40 171 -110 240
-233 227 -78 -8 -161 -51 -294 -151 -63 -47 -122 -85 -130 -83 -16 3 -17 16
-5 92 4 28 8 57 9 65 5 37 40 139 63 184 94 185 326 390 583 514 89 43 294
121 318 121 4 1 37 10 73 21 36 11 75 21 85 23 10 2 39 9 64 16 25 8 52 15 60
16 8 2 15 4 15 5 0 1 7 3 15 5 8 1 60 15 115 29 55 14 111 29 125 32 14 3 30
6 35 8 6 2 22 6 38 11 48 13 32 32 -53 61 -30 10 -57 19 -60 19 -3 1 -12 4
-20 8 -14 5 -209 70 -220 72 -3 1 -12 4 -20 8 -8 3 -116 39 -240 79 -160 53
-226 79 -228 90 -2 11 5 18 20 20 40 5 490 1 563 -6z m1660 -1050 c50 -4 104
-9 120 -11 65 -6 141 -15 160 -19 11 -2 47 -7 80 -11 32 -4 68 -9 80 -11 11
-2 34 -6 50 -9 74 -13 136 -27 133 -31 -2 -2 -40 -6 -84 -9 -43 -3 -101 -8
-129 -11 -27 -4 -59 -7 -70 -8 -27 -4 -115 -18 -140 -23 -11 -2 -31 -6 -45 -9
-143 -28 -326 -99 -467 -181 -96 -55 -197 -137 -266 -215 -60 -67 -147 -195
-147 -215 0 -7 -4 -13 -10 -13 -5 0 -10 -8 -10 -18 0 -10 -4 -22 -9 -27 -13
-14 -46 -110 -64 -185 -20 -81 -32 -168 -36 -252 -2 -47 -16 -31 -31 35 -7 34
-14 65 -14 69 -1 3 -4 10 -8 14 -5 4 -8 14 -8 22 0 29 -110 238 -159 302 -101
132 -237 244 -386 315 -67 32 -174 70 -224 80 -12 2 -30 6 -39 9 -9 3 -35 7
-56 11 -50 7 -53 10 -24 26 12 6 25 15 28 18 3 3 34 23 70 44 36 21 72 43 80
48 8 5 24 13 35 18 11 5 50 22 86 39 103 47 315 118 412 138 12 2 31 6 42 8
69 15 135 27 170 32 22 2 51 6 65 9 48 7 125 15 195 21 38 3 70 6 72 7 5 6
467 -1 548 -7z"/>
<path d="M2927 8144 c-2 -2 -23 -6 -48 -9 -92 -11 -120 -16 -249 -45 -52 -12
-99 -22 -105 -23 -5 -2 -16 -6 -22 -10 -7 -5 -13 -6 -13 -2 0 3 -9 1 -21 -5
-11 -6 -30 -13 -42 -15 -65 -12 -335 -143 -345 -167 -2 -4 -8 -8 -14 -8 -30 0
-213 -173 -318 -300 -49 -60 -158 -171 -203 -208 -109 -89 -304 -199 -562
-318 -102 -47 -46 -64 120 -38 11 2 38 6 60 9 22 3 51 8 65 11 24 6 40 9 95
18 14 3 33 7 43 10 9 3 28 7 42 10 41 8 163 43 193 55 15 6 27 8 27 5 0 -2 13
2 30 11 16 8 31 15 32 14 2 0 14 4 28 9 14 5 52 19 85 31 124 46 367 165 470
231 17 11 37 23 45 27 8 3 17 9 20 12 3 3 41 30 85 60 44 30 82 57 85 60 3 3
28 24 55 45 72 56 189 178 267 276 78 101 106 134 159 191 22 24 38 48 36 53
-3 10 -91 18 -100 10z"/>
<path d="M4188 7955 c-2 -2 -19 -5 -38 -8 -165 -24 -328 -135 -432 -294 -76
-115 -156 -309 -172 -416 -7 -41 -24 -125 -58 -272 -11 -49 -21 -97 -23 -105
-2 -8 -20 -71 -40 -140 -21 -69 -40 -134 -43 -145 -9 -34 -102 -209 -123 -231
-10 -11 -19 -23 -19 -27 0 -4 -8 -16 -17 -26 -10 -10 -27 -30 -38 -44 -64 -81
-101 -122 -203 -225 -85 -85 -111 -117 -102 -126 18 -18 170 -15 249 5 107 27
210 82 278 148 18 17 40 31 49 31 15 0 16 -9 10 -72 -7 -87 -15 -138 -23 -158
-3 -8 -7 -26 -9 -38 -8 -62 -106 -319 -127 -333 -5 -3 -9 -10 -9 -15 0 -36
-154 -247 -247 -340 -60 -60 -65 -82 -19 -75 82 11 307 87 438 148 103 49 270
139 280 152 3 4 30 22 60 40 30 19 57 36 60 40 3 3 30 25 61 48 112 83 253
221 374 363 127 151 388 421 456 474 88 67 332 207 427 245 15 6 34 15 42 20
19 12 129 61 136 61 5 0 84 34 121 52 53 26 -9 50 -197 75 -97 13 -353 7 -440
-11 -252 -52 -472 -169 -668 -355 -26 -25 -48 -38 -57 -35 -18 7 -19 -2 9 80
64 186 177 438 255 569 17 28 38 64 47 80 9 17 20 32 23 35 3 3 26 34 50 70
66 97 167 213 279 321 126 122 121 140 -22 85 -118 -45 -261 -130 -371 -219
-60 -49 -207 -196 -292 -292 -51 -57 -65 -67 -73 -55 -14 20 -2 107 29 207 11
36 63 156 71 163 3 3 22 30 42 60 91 137 243 252 401 305 61 20 83 37 72 54
-12 20 -130 79 -200 101 -59 18 -245 36 -257 25z"/>
<path d="M3290 7711 c-41 -42 -100 -97 -130 -121 -30 -25 -57 -48 -60 -51 -26
-29 -241 -171 -375 -246 -113 -64 -435 -209 -435 -196 0 3 -6 1 -12 -5 -7 -5
-58 -24 -113 -41 -55 -18 -107 -35 -115 -38 -8 -3 -19 -7 -25 -8 -5 -2 -53
-14 -105 -28 -52 -15 -106 -28 -120 -31 -14 -2 -43 -9 -65 -14 -22 -6 -53 -13
-70 -16 -152 -28 -167 -30 -250 -42 -27 -3 -58 -8 -69 -10 -18 -3 -77 -10
-161 -19 -22 -3 -80 -7 -130 -10 -49 -3 -117 -8 -150 -10 -33 -2 -155 -5 -272
-5 -117 0 -215 -5 -218 -9 -11 -18 7 -38 73 -78 166 -102 325 -163 542 -209
14 -3 43 -8 65 -10 56 -6 65 -11 65 -32 0 -14 -14 -24 -48 -37 -156 -58 -400
-184 -517 -267 -168 -119 -275 -209 -383 -321 -37 -38 -73 -76 -80 -83 -39
-41 -132 -161 -132 -170 0 -27 35 -23 90 11 32 19 63 35 69 35 6 0 11 4 11 8
0 4 15 15 32 23 18 9 83 41 143 71 102 52 262 128 270 128 1 0 19 7 39 15 20
8 38 15 41 15 3 0 18 6 34 14 29 16 317 113 354 120 12 3 54 12 92 21 39 10
79 19 90 21 11 1 56 9 100 17 44 8 83 13 87 11 4 -2 9 0 13 6 4 6 10 8 15 5 7
-4 164 9 217 19 10 2 38 7 63 11 174 27 506 145 612 217 14 10 30 18 34 18 4
0 26 12 48 27 23 14 59 38 81 52 22 14 45 29 50 34 228 171 349 287 478 457
31 41 60 80 65 85 5 6 32 51 61 100 29 50 57 97 61 105 26 43 94 205 106 250
25 99 35 144 40 190 3 30 8 57 10 59 7 7 -17 41 -29 40 -7 0 -46 -35 -87 -78z"/>
<path d="M7669 7776 c-2 -2 -51 -7 -109 -10 -58 -3 -118 -7 -135 -10 -16 -2
-55 -7 -85 -10 -30 -4 -62 -9 -70 -11 -8 -2 -31 -7 -50 -10 -19 -3 -53 -11
-75 -17 -22 -5 -51 -12 -64 -15 -14 -2 -28 -6 -33 -9 -4 -3 -16 -7 -25 -9 -10
-2 -63 -15 -118 -29 -129 -33 -269 -57 -425 -71 -95 -9 -117 -35 -43 -50 21
-5 43 -9 48 -11 6 -1 35 -7 65 -13 30 -6 67 -13 83 -16 83 -16 128 -23 192
-31 28 -3 66 -8 85 -10 19 -3 127 -8 240 -10 113 -3 211 -7 219 -10 11 -3 10
-8 -2 -28 -19 -28 -6 -46 33 -46 26 0 147 -23 215 -40 22 -6 49 -13 61 -15 11
-3 92 -34 180 -70 156 -65 255 -99 324 -115 19 -5 44 -10 55 -13 11 -2 43 -8
70 -11 28 -4 63 -9 79 -12 68 -11 251 -12 258 -1 7 12 -23 77 -79 170 -19 31
-33 62 -31 69 2 6 24 13 49 14 330 22 364 25 373 34 9 9 -9 40 -22 38 -4 0 -9
1 -12 2 -3 1 -14 4 -25 6 -34 8 -50 12 -50 14 0 1 -7 3 -16 5 -17 3 -130 41
-164 55 -11 5 -78 27 -150 51 -71 23 -134 45 -140 48 -5 3 -14 6 -20 7 -25 5
-222 78 -240 90 -11 7 -51 24 -90 37 -61 22 -90 30 -155 44 -8 2 -40 5 -70 8
-30 3 -71 8 -91 10 -20 2 -38 2 -40 1z"/>
<path d="M4959 7125 c-2 -2 -24 -6 -49 -10 -25 -3 -59 -10 -76 -16 -17 -5 -40
-11 -50 -13 -10 -3 -37 -12 -59 -22 -22 -10 -42 -18 -45 -19 -37 -8 -169 -102
-223 -160 -87 -94 -173 -253 -148 -278 8 -8 11 -8 11 1 0 33 196 183 295 226
22 9 47 21 55 25 20 11 117 39 182 52 76 16 257 18 331 3 34 -7 76 -15 92 -18
17 -3 39 -7 50 -10 21 -5 200 -43 245 -51 14 -3 34 -7 45 -10 11 -2 23 -5 27
-5 4 -1 22 -5 39 -10 24 -7 41 -5 73 9 114 52 158 70 222 90 68 21 82 24 154
37 19 4 44 8 55 10 21 4 117 14 170 17 43 3 45 32 3 41 -93 19 -422 28 -525
14 -50 -6 -53 0 -17 31 48 42 32 46 -182 47 -109 1 -226 5 -259 8 -69 8 -411
17 -416 11z"/>
<path d="M3193 6860 c-45 -54 -57 -69 -106 -125 -106 -122 -294 -298 -412
-387 -5 -4 -24 -19 -41 -32 -133 -107 -507 -300 -623 -322 -14 -3 -29 -8 -35
-12 -6 -3 -20 -8 -31 -9 -11 -2 -31 -8 -45 -13 -14 -6 -38 -12 -55 -14 -16 -3
-46 -7 -65 -10 -88 -15 -270 -27 -442 -30 -81 -1 -150 -5 -153 -8 -30 -29 207
-177 413 -257 56 -22 102 -37 102 -35 0 3 8 0 18 -5 9 -5 31 -12 47 -15 17 -3
48 -10 69 -15 22 -5 43 -8 47 -5 4 2 10 0 14 -6 4 -6 10 -8 15 -5 4 3 13 -2
20 -10 9 -11 4 -21 -28 -52 -99 -95 -223 -180 -357 -244 -117 -55 -195 -82
-308 -105 -115 -24 -122 -33 -59 -79 28 -20 53 -35 56 -33 2 2 13 -5 24 -15
46 -42 334 -157 392 -157 18 0 12 -12 -37 -72 -31 -40 -62 -78 -68 -84 -5 -6
-41 -46 -80 -89 -66 -74 -192 -199 -260 -259 -16 -14 -43 -37 -58 -51 -15 -14
-60 -51 -100 -82 -94 -76 -99 -81 -92 -93 20 -33 272 31 356 91 15 10 29 19
32 19 3 0 38 23 79 50 40 28 81 56 91 63 11 6 27 19 38 27 10 8 44 33 75 55
83 59 96 55 82 -28 -4 -29 -10 -68 -13 -87 -3 -19 -14 -71 -25 -115 -11 -44
-23 -91 -26 -104 -3 -13 -10 -33 -15 -43 -6 -11 -12 -27 -14 -36 -2 -9 -12
-38 -24 -65 -11 -26 -21 -51 -22 -55 -14 -49 -147 -266 -213 -347 -23 -27 -48
-58 -56 -68 -8 -11 -21 -25 -27 -32 -17 -18 -16 -45 1 -45 40 0 268 165 377
272 109 107 221 251 290 372 31 53 99 193 99 203 0 3 6 19 14 36 14 31 47 137
52 167 1 8 5 25 8 38 21 81 44 196 52 268 3 32 8 68 9 79 1 11 3 28 4 38 0 10
5 16 10 12 16 -9 155 46 294 116 129 66 226 138 338 249 95 95 219 258 219
289 0 6 4 11 9 11 5 0 11 9 14 19 10 40 -14 39 -101 -4 -121 -60 -221 -80
-382 -78 -90 1 -163 8 -220 19 -14 3 -40 7 -59 9 -43 5 -44 6 -36 49 5 22 14
38 26 41 10 4 19 10 19 14 0 5 14 14 30 21 17 7 30 16 30 21 0 5 5 9 11 9 9 0
44 26 159 120 55 44 189 178 251 250 69 80 169 215 169 229 0 5 4 11 9 13 5 2
32 43 60 91 46 80 64 116 129 257 11 25 34 84 51 132 25 73 28 88 16 98 -11 9
-18 7 -32 -10z"/>
<path d="M5140 6260 c-19 -11 -42 -22 -50 -26 -8 -4 -17 -10 -20 -13 -3 -3
-38 -27 -77 -54 -81 -52 -73 -47 -198 -150 -91 -75 -136 -118 -321 -308 -109
-112 -173 -172 -275 -259 -35 -30 -65 -58 -67 -62 -2 -5 -10 -8 -17 -8 -7 0
-15 -4 -17 -9 -1 -5 -43 -39 -93 -76 -49 -36 -97 -72 -105 -78 -27 -22 -224
-144 -298 -186 -66 -37 -221 -109 -247 -116 -5 -1 -17 -5 -25 -8 -13 -6 -112
-33 -150 -42 -119 -26 -169 -45 -164 -60 6 -15 237 -135 260 -135 7 0 14 -4
16 -8 5 -13 287 -125 433 -172 72 -23 137 -44 145 -47 8 -3 22 -7 30 -8 8 -1
35 -8 60 -15 25 -6 52 -14 60 -15 8 -2 35 -8 60 -14 25 -5 61 -12 80 -16 19
-3 46 -7 60 -10 14 -3 39 -7 55 -9 17 -2 48 -7 70 -10 56 -9 121 -14 255 -22
63 -3 118 -8 122 -10 26 -16 -10 -45 -72 -59 -64 -15 -424 -208 -467 -250 -8
-8 -19 -15 -24 -15 -5 0 -17 -8 -27 -17 -10 -10 -31 -27 -46 -38 -64 -46 -76
-57 -76 -74 0 -16 10 -18 95 -17 52 1 95 -2 95 -5 0 -3 13 -4 28 -3 26 2 164
-17 232 -31 64 -13 270 -68 415 -110 88 -26 165 -48 170 -50 6 -1 17 -5 25 -8
8 -3 35 -11 60 -18 25 -7 50 -14 55 -15 110 -32 298 -77 375 -90 14 -2 35 -7
48 -9 53 -12 201 -37 252 -42 102 -9 289 -4 383 11 23 3 39 27 28 41 -30 38
-241 536 -256 605 -1 3 -7 25 -14 50 -37 128 -62 307 -65 465 -2 112 -19 112
-74 0 -23 -47 -42 -91 -42 -98 0 -7 -4 -17 -9 -23 -9 -9 -76 -209 -85 -255 -9
-45 -15 -71 -20 -87 -6 -20 -16 -83 -21 -130 -2 -18 -6 -36 -9 -40 -4 -6 -121
-8 -121 -2 0 1 -34 3 -75 5 -84 4 -235 13 -355 21 -44 3 -102 7 -130 8 -66 4
-65 4 -65 20 0 8 43 44 95 81 53 36 110 78 127 93 78 67 188 176 193 192 3 10
1 37 -4 61 -5 24 -13 64 -16 89 -3 25 -12 72 -18 105 l-12 60 -75 -4 c-178
-10 -462 -3 -565 14 -16 3 -52 7 -80 10 -27 2 -66 6 -86 10 -20 3 -51 7 -70
10 -53 5 -106 14 -214 36 -55 10 -110 21 -123 24 -84 16 -89 38 -14 61 31 10
59 18 62 19 59 13 254 106 327 155 24 17 46 30 48 30 5 0 106 70 115 80 3 3
34 27 70 55 36 27 70 54 77 60 6 5 31 26 54 45 24 19 55 46 71 60 15 14 50 45
78 70 52 46 93 84 320 300 73 69 160 151 193 183 34 32 81 75 104 95 50 44 56
71 16 73 -16 1 -32 0 -38 -1 -5 -1 -23 -4 -40 -5 -66 -7 -140 -18 -148 -22 -4
-2 -20 -7 -35 -9 -40 -8 -201 -62 -248 -84 -82 -40 -88 -21 -24 75 27 42 50
78 50 80 0 2 10 15 23 29 60 65 58 108 -3 76z"/>
<path d="M5295 5527 c-16 -12 -37 -29 -45 -38 -41 -44 -383 -309 -398 -309 -6
0 -12 -4 -14 -8 -4 -12 -95 -72 -107 -72 -6 0 -11 -4 -11 -10 0 -5 -7 -10 -15
-10 -8 0 -15 -4 -15 -8 0 -4 -15 -15 -32 -23 -18 -9 -85 -42 -148 -74 -99 -50
-112 -59 -97 -70 27 -20 319 -8 477 20 14 2 43 7 65 10 23 3 52 8 65 10 14 3
39 8 55 10 17 3 37 8 45 10 8 2 30 7 48 10 18 3 49 12 70 20 36 15 37 17 39
68 0 28 4 75 8 102 3 28 8 64 10 80 2 17 4 30 5 30 1 0 3 14 5 30 2 17 7 46
11 65 4 19 8 44 10 55 2 11 8 39 14 63 16 66 4 76 -45 39z"/>
<path d="M11189 5348 c-6 -20 -6 -38 0 -38 4 0 8 -6 9 -12 0 -7 7 -40 14 -73
25 -108 14 -206 -37 -336 -32 -80 -34 -93 -23 -117 19 -39 53 -52 128 -48 118
6 201 57 229 141 8 22 26 51 41 65 15 14 41 37 57 52 52 47 79 130 66 201 -8
40 -58 61 -138 59 -86 -2 -148 15 -248 68 -68 35 -95 46 -98 38z"/>
<path d="M2377 4681 c-2 -10 4 -29 14 -42 10 -13 19 -30 19 -36 0 -7 5 -13 10
-13 6 0 10 -5 10 -10 0 -6 16 -34 36 -63 128 -183 305 -348 552 -514 70 -47
128 -92 130 -99 2 -7 -9 -36 -24 -66 -16 -29 -29 -55 -29 -58 -1 -3 -12 -27
-24 -55 -23 -50 -71 -172 -75 -190 -2 -5 -15 -48 -29 -96 -30 -95 -66 -252
-67 -286 0 -31 18 -29 88 6 108 55 281 104 402 116 19 2 35 4 35 5 0 5 113 10
284 11 216 2 220 0 194 -60 -8 -20 -16 -40 -17 -46 -2 -5 -6 -19 -10 -30 -24
-63 -26 -71 -51 -185 -2 -8 -4 -15 -5 -15 -1 0 -3 -13 -5 -30 -1 -16 -6 -52
-10 -80 -12 -84 -13 -165 -4 -171 6 -3 72 57 147 134 75 76 178 169 227 205
50 37 95 71 102 77 7 5 24 15 38 22 14 6 25 15 25 20 0 4 4 8 9 8 5 0 38 17
72 38 35 21 84 48 109 61 25 12 52 26 60 31 37 21 144 66 245 102 122 44 142
55 125 72 -6 6 -14 11 -18 12 -4 0 -25 6 -47 13 -59 18 -187 52 -212 57 -13 2
-34 6 -48 8 -14 3 -33 7 -43 10 -16 5 -50 10 -129 21 -21 3 -52 8 -68 10 -85
14 -247 24 -390 25 -123 0 -235 -7 -402 -25 -28 -3 -54 -1 -58 4 -13 22 152
316 279 496 39 55 45 84 19 86 -10 1 -36 2 -58 4 -22 1 -68 8 -102 14 -35 6
-73 13 -85 15 -21 4 -90 20 -130 31 -10 3 -26 7 -37 9 -25 6 -231 74 -256 85
-11 5 -56 23 -100 41 -126 50 -170 70 -335 153 -141 71 -178 91 -290 154 -56
31 -68 34 -73 14z"/>
<path d="M7432 3729 c-10 -26 -5 -237 11 -471 2 -26 1 -51 -2 -55 -9 -12 -33
-15 -40 -6 -3 4 -33 28 -66 53 -156 116 -259 234 -321 368 -11 25 -20 33 -37
30 -20 -3 -21 -8 -24 -138 -2 -122 -9 -255 -14 -255 -1 0 -3 -9 -4 -20 -6 -49
-16 -111 -20 -125 -2 -8 -7 -28 -9 -45 -3 -16 -15 -61 -26 -100 -17 -59 -18
-71 -6 -83 12 -12 23 -10 77 16 35 17 95 51 134 76 38 24 72 43 74 40 2 -2 10
-34 17 -70 12 -67 12 -203 -1 -284 -8 -52 -60 -191 -87 -235 -10 -16 -21 -38
-24 -47 -4 -10 -10 -18 -15 -18 -12 0 -6 -39 7 -44 15 -6 59 26 121 89 108
109 187 221 251 357 37 77 95 248 87 256 -3 3 0 11 6 19 6 7 9 13 6 13 -2 0 1
27 8 60 8 37 12 118 10 208 -2 134 -6 178 -19 237 -18 83 -23 100 -47 165 -13
35 -36 39 -47 9z"/>
<path d="M6237 3275 c-54 -19 -113 -36 -130 -39 -18 -2 -61 -10 -96 -16 -35
-6 -97 -13 -137 -15 -40 -2 -77 -5 -81 -7 -7 -4 -478 -2 -478 1 0 1 -33 3 -73
5 -82 3 -111 -12 -70 -37 27 -18 124 -57 278 -114 36 -13 72 -25 80 -27 24 -4
74 -17 90 -23 8 -3 21 -7 29 -9 7 -1 34 -8 60 -14 264 -62 479 -71 656 -27
l50 12 0 45 c0 25 -3 65 -8 90 -5 25 -10 56 -13 70 -6 45 -39 133 -49 136 -5
1 -54 -13 -108 -31z"/>
<path d="M7646 3152 c-3 -5 -8 -44 -11 -87 -4 -43 -11 -88 -16 -101 -4 -13 -7
-24 -4 -24 5 0 -22 -95 -35 -125 -4 -11 -20 -46 -34 -77 -14 -31 -26 -62 -26
-67 0 -6 -4 -11 -10 -11 -5 0 -10 -6 -10 -13 0 -7 -9 -23 -20 -35 -11 -12 -20
-25 -20 -29 0 -4 -14 -24 -30 -43 -31 -36 -37 -55 -21 -64 11 -7 135 81 190
135 24 24 63 69 86 100 43 59 45 60 115 36 103 -36 300 -40 300 -7 0 6 -12 16
-27 23 -27 12 -83 46 -93 57 -3 3 -21 17 -41 32 -50 37 -138 124 -184 183 -22
28 -43 52 -47 53 -5 2 -8 9 -8 15 -1 13 -34 57 -44 57 -2 0 -7 -4 -10 -8z"/>
<path d="M4740 3079 c-30 -11 -59 -21 -65 -22 -24 -5 -227 -110 -285 -148
-121 -78 -290 -230 -290 -261 0 -23 11 -23 68 3 135 62 173 78 242 99 41 14
77 25 80 25 3 1 25 5 50 9 25 5 54 10 65 13 11 3 55 6 98 9 70 3 91 -1 220
-42 137 -43 155 -48 215 -59 15 -3 41 -8 57 -12 31 -6 51 -9 125 -19 93 -12
118 -13 240 -15 132 -1 242 6 325 21 28 5 64 11 80 14 53 9 78 15 86 23 14 14
-7 35 -37 38 -55 5 -129 16 -144 20 -8 2 -37 7 -65 11 -27 3 -57 8 -65 10 -8
2 -78 17 -155 33 -325 68 -560 145 -705 232 -65 39 -79 40 -140 18z"/>
<path d="M6660 2753 c-14 -9 -27 -20 -30 -23 -20 -25 -216 -124 -323 -164
-219 -82 -407 -111 -704 -111 -162 1 -182 -1 -186 -16 -4 -15 24 -30 88 -45 6
-1 29 -9 53 -18 23 -8 43 -15 45 -15 1 0 9 -2 17 -5 18 -6 104 -24 145 -31 17
-3 40 -7 53 -9 13 -3 51 -8 85 -12 53 -6 92 -8 190 -13 9 -1 17 -8 17 -16 0
-19 -49 -95 -61 -95 -5 0 -9 -5 -9 -11 0 -6 -11 -24 -25 -41 -78 -93 46 -71
210 36 33 22 65 45 72 50 7 6 45 40 86 76 40 36 90 85 110 110 20 25 48 57 62
72 14 15 25 30 25 33 0 3 15 26 34 52 19 27 50 79 69 117 46 88 36 120 -23 79z"/>
</g>
</svg>
