<?xml version="1.0" standalone="no"?>
<!DOCTYPE svg PUBLIC "-//W3C//DTD SVG 20010904//EN"
 "http://www.w3.org/TR/2001/REC-SVG-20010904/DTD/svg10.dtd">
<svg version="1.0" xmlns="http://www.w3.org/2000/svg"
 width="566.000000pt" height="566.000000pt" viewBox="0 0 566.000000 566.000000"
 preserveAspectRatio="xMidYMid meet">
<metadata>
Created by potrace 1.14, written by Peter Selinger 2001-2017
</metadata>
<g transform="translate(0.000000,566.000000) scale(0.100000,-0.100000)"
fill="#000000" stroke="none">
<path d="M2570 5619 c-30 -4 -82 -10 -115 -13 -33 -3 -71 -8 -85 -11 -14 -3
-42 -7 -64 -10 -127 -17 -491 -123 -626 -184 -25 -11 -47 -20 -50 -19 -3 0
-66 -32 -141 -70 -174 -89 -378 -221 -484 -313 -365 -318 -592 -635 -765
-1070 -39 -97 -98 -266 -105 -303 -3 -10 -11 -42 -19 -70 -16 -57 -61 -269
-70 -331 -4 -23 -8 -50 -10 -62 -3 -12 -8 -53 -11 -90 -4 -37 -9 -79 -11 -93
-3 -14 -7 -110 -10 -213 l-5 -189 63 7 c35 3 83 8 108 11 25 2 65 7 90 10 25
2 73 7 105 9 33 2 74 6 90 9 17 2 66 7 110 11 44 3 96 8 115 10 19 3 62 7 95
10 119 11 161 15 210 21 28 4 61 7 75 8 25 1 30 14 17 46 -30 75 -80 319 -102
500 -3 19 -7 53 -10 75 -23 185 -29 324 -29 670 0 182 4 386 8 455 5 69 9 135
10 148 0 21 16 33 16 12 0 -15 160 -240 199 -281 9 -9 34 -37 56 -64 53 -64
167 -179 240 -240 32 -27 67 -58 77 -67 10 -10 22 -18 27 -18 5 0 11 -4 13 -9
4 -10 224 -161 236 -161 4 0 14 -6 21 -12 6 -7 15 -13 19 -13 4 -1 27 -12 52
-25 25 -13 48 -24 52 -25 3 0 10 -3 14 -8 12 -12 41 -8 41 6 0 13 27 106 71
242 14 44 27 85 28 90 1 6 27 71 57 145 106 263 233 505 379 723 67 102 184
257 193 257 2 0 3 -26 4 -57 1 -32 3 -69 5 -83 2 -14 7 -50 10 -80 4 -30 11
-73 16 -95 5 -22 11 -53 14 -70 5 -28 10 -50 20 -92 2 -10 9 -29 14 -43 5 -14
10 -29 11 -35 3 -27 79 -239 108 -305 28 -64 132 -274 150 -305 68 -115 151
-246 175 -276 15 -20 28 -40 28 -43 0 -9 42 -56 50 -56 4 0 23 15 43 34 20 19
83 71 139 116 57 45 112 90 124 99 74 59 394 271 410 271 2 0 21 11 42 24 44
27 212 114 227 116 6 1 28 12 50 25 109 63 593 230 612 211 3 -2 -5 -15 -17
-28 -45 -48 -123 -174 -175 -281 -48 -100 -117 -282 -129 -340 -3 -12 -7 -31
-10 -42 -34 -135 -45 -182 -50 -218 -3 -23 -8 -53 -11 -67 -8 -37 -14 -78 -20
-140 -3 -30 -8 -67 -11 -82 -11 -70 -23 -404 -14 -416 3 -4 25 -8 50 -8 25 -1
77 -5 115 -8 95 -9 155 -14 250 -21 44 -4 98 -8 120 -11 22 -2 78 -6 125 -9
47 -3 101 -8 120 -10 59 -7 151 -15 239 -20 l84 -6 -7 158 c-8 182 -12 244
-20 293 -3 19 -8 55 -11 80 -3 25 -7 56 -10 70 -3 14 -7 39 -10 55 -7 47 -15
85 -31 150 -8 33 -17 71 -20 85 -10 48 -106 325 -120 348 -8 12 -12 22 -10 22
9 0 -105 222 -157 305 -47 76 -154 226 -207 290 -33 41 -300 307 -300 300 0
-3 -10 4 -22 15 -28 26 -152 120 -193 146 -16 10 -32 21 -35 24 -10 12 -208
127 -295 172 -173 89 -513 219 -631 242 -16 3 -69 15 -119 26 -49 11 -106 22
-125 25 -20 3 -45 7 -55 9 -22 4 -92 13 -170 23 -79 9 -484 11 -545 2z"/>
<path d="M2504 3734 c-110 -135 -112 -137 -168 -203 l-45 -54 78 -86 c83 -92
146 -170 199 -248 61 -88 122 -185 122 -193 0 -4 8 -18 18 -31 30 -41 133
-268 170 -374 41 -122 54 -169 87 -340 20 -107 27 -365 13 -535 l-7 -85 25 85
c14 47 27 96 30 109 3 14 7 28 9 31 2 4 7 22 10 41 3 19 12 66 20 104 31 157
39 260 40 470 0 165 -5 245 -19 355 -20 150 -80 362 -145 515 -60 141 -201
375 -276 460 -15 17 -37 43 -50 59 l-22 28 -89 -108z"/>
<path d="M4060 3519 c-19 -10 -42 -18 -51 -19 -9 0 -22 -7 -29 -15 -7 -8 -18
-15 -24 -15 -10 0 -57 -19 -286 -116 -19 -9 -44 -19 -55 -24 -153 -64 -171
-74 -166 -91 2 -8 11 -36 19 -64 19 -65 41 -176 49 -245 13 -111 6 -324 -13
-435 -3 -16 -7 -39 -9 -50 -21 -120 -69 -280 -129 -425 -38 -91 -147 -304
-157 -308 -5 -2 -9 -8 -9 -14 0 -10 -125 -206 -139 -218 -3 -3 -13 -14 -21
-24 -21 -28 -5 -17 110 70 238 182 448 404 599 634 61 92 58 88 120 205 110
208 193 463 227 694 4 25 9 55 11 66 7 31 12 346 6 383 -6 36 -6 36 -53 11z"/>
<path d="M1450 3026 l0 -374 43 -7 c67 -11 68 -12 157 -38 146 -43 330 -123
442 -193 87 -54 153 -99 163 -109 6 -6 28 -24 50 -40 68 -49 222 -211 295
-310 39 -51 70 -96 70 -99 0 -3 13 -24 29 -48 24 -36 105 -198 124 -248 9 -24
-4 141 -18 220 -13 78 -56 243 -86 331 -41 124 -49 143 -121 287 -97 196 -206
348 -357 501 -92 94 -280 251 -299 251 -5 0 -15 6 -21 14 -7 8 -26 22 -44 31
-18 8 -48 25 -67 37 -57 35 -230 119 -297 144 l-63 24 0 -374z"/>
<path d="M4410 2463 c-38 -112 -175 -369 -202 -381 -5 -2 -8 -8 -8 -14 0 -5
-6 -15 -12 -22 -7 -7 -26 -31 -43 -52 -225 -288 -546 -493 -929 -593 -44 -12
-91 -21 -105 -21 -20 0 -23 -2 -11 -10 14 -9 352 -7 430 3 175 22 296 46 440
88 127 37 270 95 388 156 80 41 293 176 324 205 7 7 42 37 76 66 75 64 183
176 244 252 75 93 138 182 138 194 0 7 -30 20 -67 29 -38 10 -75 19 -83 21
-93 24 -189 49 -205 53 -40 9 -50 11 -50 13 0 2 -16 6 -50 14 -11 2 -20 5 -20
6 0 2 -24 8 -60 15 -11 2 -54 13 -95 24 -41 11 -75 21 -76 21 0 0 -11 -30 -24
-67z"/>
<path d="M989 2207 c-2 -3 -38 -8 -79 -11 -41 -4 -95 -12 -120 -18 -25 -5 -56
-12 -70 -14 -73 -13 -165 -43 -174 -57 -7 -11 4 -43 44 -124 48 -95 158 -271
193 -308 6 -7 28 -32 47 -56 99 -124 285 -288 449 -394 164 -106 458 -243 584
-271 4 -1 8 -2 10 -4 1 -1 9 -3 17 -5 8 -2 51 -13 96 -24 45 -12 90 -23 100
-25 116 -23 144 -29 140 -33 -16 -16 -346 -23 -471 -10 -38 4 -77 8 -85 8 -13
1 -67 9 -155 23 -11 2 -40 9 -65 16 -25 7 -56 14 -69 17 -13 2 -34 9 -45 15
-12 6 -23 11 -26 10 -17 -6 -220 74 -310 121 -97 51 -194 109 -198 119 -2 4
-8 8 -13 8 -32 0 -276 217 -388 345 -24 28 -42 46 -39 40 40 -95 186 -342 245
-415 7 -8 26 -33 42 -55 131 -172 349 -390 522 -518 67 -51 226 -157 234 -157
3 0 15 -9 27 -20 12 -10 25 -17 29 -14 4 2 10 0 14 -6 6 -10 222 -118 315
-158 25 -10 81 -31 125 -47 44 -15 87 -30 95 -33 8 -3 20 -6 25 -7 6 0 17 -4
25 -8 23 -10 250 -65 295 -71 22 -3 54 -8 70 -11 138 -24 221 -30 435 -30 216
0 309 7 470 34 344 58 758 208 1015 369 90 56 150 97 153 104 2 5 9 8 15 8 7
0 29 16 51 35 21 19 41 35 45 35 4 0 24 16 44 35 20 19 40 35 43 35 19 0 279
277 362 385 170 220 314 495 428 814 29 79 31 91 14 73 -11 -11 -20 -25 -20
-31 0 -5 -3 -11 -7 -13 -5 -2 -30 -30 -57 -63 -137 -165 -387 -386 -572 -503
-144 -91 -386 -202 -496 -228 -10 -2 -26 -6 -35 -8 -168 -41 -254 -51 -433
-50 -172 1 -186 3 -392 50 -5 1 -9 2 -10 4 -2 1 -10 3 -18 5 -35 7 -183 66
-242 96 -67 34 -237 143 -278 179 -14 12 -54 47 -89 78 -90 80 -95 84 -131
112 -18 14 -38 30 -44 35 -26 25 -198 146 -276 195 -210 132 -436 239 -625
296 -44 14 -98 30 -120 37 -22 6 -42 12 -45 13 -15 2 -106 18 -110 19 -18 5
-81 16 -115 21 -50 7 -390 16 -396 11z"/>
</g>
</svg>
