<?xml version="1.0" standalone="no"?>
<!DOCTYPE svg PUBLIC "-//W3C//DTD SVG 20010904//EN"
 "http://www.w3.org/TR/2001/REC-SVG-20010904/DTD/svg10.dtd">
<svg version="1.0" xmlns="http://www.w3.org/2000/svg"
 width="1152.000000pt" height="1152.000000pt" viewBox="0 0 1152.000000 1152.000000"
 preserveAspectRatio="xMidYMid meet">
<metadata>
Created by potrace 1.14, written by Peter Selinger 2001-2017
</metadata>
<g transform="translate(0.000000,1152.000000) scale(0.100000,-0.100000)"
fill="#000000" stroke="none">
<path d="M4825 11512 c-34 -8 -63 -51 -58 -86 5 -30 49 -96 112 -165 17 -19
31 -39 31 -44 0 -6 2 -8 5 -5 5 5 274 -260 315 -309 9 -10 28 -41 44 -68 16
-28 40 -64 53 -81 12 -17 23 -36 23 -42 0 -7 4 -12 8 -12 5 0 15 -12 23 -27 8
-16 16 -30 19 -33 11 -10 50 -107 60 -148 6 -24 13 -105 15 -181 2 -115 0
-142 -15 -173 -17 -34 -33 -81 -35 -103 -3 -26 -141 -302 -190 -380 -10 -16
-31 -50 -46 -75 -16 -25 -33 -50 -39 -57 -5 -7 -10 -15 -10 -18 0 -3 -4 -11
-10 -18 -5 -7 -48 -63 -95 -125 -94 -124 -107 -140 -178 -215 -114 -122 -187
-196 -248 -249 -91 -82 -93 -83 -101 -80 -5 1 -8 -2 -8 -8 0 -23 -430 -276
-430 -253 0 5 -4 3 -8 -2 -4 -6 -25 -16 -47 -24 -22 -7 -53 -19 -70 -26 -16
-7 -70 -27 -119 -45 -49 -18 -105 -39 -125 -48 -20 -9 -40 -16 -46 -18 -23 -4
-340 -149 -346 -157 -3 -5 -9 -8 -13 -7 -8 2 -253 -122 -306 -154 -19 -12 -46
-27 -60 -34 -26 -12 -34 -17 -108 -64 -24 -16 -45 -28 -49 -28 -3 0 -25 -13
-50 -30 -24 -16 -46 -30 -48 -30 -3 0 -40 -25 -82 -55 -43 -30 -86 -60 -97
-67 -10 -7 -24 -19 -32 -25 -7 -7 -17 -13 -22 -13 -6 0 -12 -3 -14 -7 -1 -5
-37 -36 -79 -71 -109 -92 -282 -270 -339 -352 -14 -19 -28 -37 -31 -40 -21
-16 -151 -232 -148 -246 0 -4 -3 -10 -8 -13 -7 -5 -27 -47 -83 -176 -25 -57
-38 -95 -33 -95 3 0 1 -6 -5 -13 -11 -12 -100 -244 -108 -282 -10 -41 -13 -50
-14 -50 -3 0 -16 -60 -26 -115 -4 -19 -9 -44 -11 -55 -3 -11 -6 -84 -8 -162
-4 -172 -20 -216 -111 -311 -33 -33 -66 -68 -74 -79 -43 -53 -70 -93 -70 -102
0 -6 -4 -11 -8 -11 -17 0 -101 -198 -130 -305 -39 -144 -67 -275 -77 -365 -26
-216 -28 -251 -29 -525 0 -230 4 -312 19 -405 2 -14 7 -43 10 -65 3 -23 8 -52
10 -65 3 -14 8 -43 10 -64 3 -21 8 -42 10 -46 2 -4 7 -20 9 -36 8 -44 13 -64
31 -124 8 -30 17 -64 20 -74 7 -29 35 -118 45 -141 4 -11 27 -69 51 -130 36
-94 64 -153 123 -260 6 -11 21 -34 34 -52 12 -17 22 -36 22 -41 0 -6 3 -12 8
-14 4 -1 20 -21 37 -43 52 -70 68 -88 160 -180 102 -101 127 -123 211 -181 68
-48 194 -125 209 -129 6 -1 39 -15 75 -32 103 -47 287 -106 400 -127 14 -2 32
-7 40 -10 8 -3 29 -7 45 -10 17 -2 64 -11 105 -20 41 -8 116 -22 165 -30 87
-15 114 -19 220 -31 28 -4 64 -8 80 -10 127 -15 244 -19 460 -19 228 1 288 4
410 20 22 3 56 7 75 9 47 6 291 54 310 62 8 3 18 6 21 5 3 -1 35 8 69 18 35
11 67 17 71 14 4 -2 10 -1 13 4 10 16 216 1 216 -17 0 -4 9 -7 21 -8 26 -2
104 -52 148 -95 35 -34 101 -130 101 -146 0 -5 7 -15 15 -22 8 -6 14 -15 13
-18 -3 -10 65 -146 77 -154 5 -4 7 -8 4 -8 -4 0 -1 -28 7 -62 23 -113 6 -245
-44 -343 -8 -16 -58 -95 -111 -175 -53 -80 -98 -149 -100 -154 -4 -10 -28 -40
-49 -62 -7 -8 -11 -14 -7 -14 7 0 -47 -73 -57 -78 -5 -2 -8 -9 -8 -15 0 -7
-11 -25 -25 -41 -14 -16 -25 -35 -25 -43 0 -7 -4 -13 -10 -13 -5 0 -10 -4 -10
-9 0 -5 -18 -37 -40 -70 -23 -34 -55 -87 -72 -119 -17 -31 -34 -59 -37 -62 -8
-7 -43 -72 -76 -143 -15 -31 -32 -57 -37 -57 -5 0 -7 -4 -3 -9 3 -5 -2 -17
-11 -25 -8 -9 -13 -16 -10 -16 3 0 -10 -30 -29 -66 -27 -52 -32 -70 -24 -85
13 -25 18 -24 91 12 35 17 72 35 83 40 11 4 47 20 80 34 66 30 240 96 258 99
7 1 17 4 22 8 6 4 58 21 115 38 58 18 117 36 133 40 15 5 30 9 32 9 3 1 6 1 8
2 4 1 33 8 127 29 52 12 104 24 115 26 11 3 34 7 50 9 17 3 41 7 55 9 113 23
390 38 390 23 0 -5 8 -6 18 -2 9 4 22 7 27 7 58 -4 157 -13 185 -17 100 -14
124 -18 189 -34 25 -5 49 -8 53 -5 4 3 8 0 8 -6 0 -7 6 -10 14 -7 8 3 17 3 21
-1 4 -4 10 -7 13 -8 10 0 124 -34 142 -41 8 -3 20 -7 25 -8 13 -4 111 -42 150
-59 17 -7 71 -32 121 -55 50 -22 96 -41 102 -41 18 0 14 34 -13 105 -48 128
-125 241 -224 330 -252 226 -374 403 -455 660 -20 62 -37 137 -44 190 -15 126
-6 352 19 465 6 25 12 54 13 65 2 11 8 33 15 48 6 16 11 34 11 40 1 29 64 110
107 137 39 25 156 70 219 85 10 2 37 9 59 15 57 15 65 17 115 25 25 4 54 9 65
11 11 3 44 7 73 10 72 8 75 9 89 17 6 4 14 3 17 -1 3 -5 27 -5 53 -1 46 8 507
4 738 -5 121 -5 1011 -6 1170 -2 122 4 186 12 291 36 192 45 379 138 531 267
94 79 258 247 306 313 26 36 52 71 58 78 5 7 26 43 46 80 19 37 39 72 43 77 4
6 16 33 26 60 10 28 24 61 31 74 6 14 10 28 7 33 -3 4 -1 8 4 8 5 0 9 6 10 13
1 18 9 49 21 79 6 16 9 28 6 28 -2 0 1 15 6 33 18 63 24 134 24 307 0 158 -4
220 -21 345 -3 22 -7 56 -8 75 -2 19 -7 43 -11 53 -4 9 -5 24 -1 32 3 8 2 15
-3 15 -5 0 -7 11 -6 25 2 14 -1 27 -6 31 -5 3 -7 9 -4 13 2 5 0 23 -5 42 -6
19 -12 48 -15 64 -4 35 -55 232 -81 320 -10 33 -18 62 -19 65 -8 33 -30 97
-37 104 -4 6 -8 16 -8 23 0 41 -104 282 -191 443 -16 29 -110 172 -119 180 -3
3 -25 32 -50 64 -92 121 -393 406 -429 406 -6 0 -11 4 -11 9 0 8 -73 57 -140
94 -19 11 -42 25 -50 31 -8 7 -27 17 -42 24 -35 15 -36 41 -3 72 14 13 42 49
62 79 21 31 40 58 43 61 3 3 18 34 34 70 15 36 32 74 37 85 9 20 29 108 34
155 2 14 6 47 10 75 13 89 7 298 -10 375 -3 14 -8 37 -10 52 -10 65 -52 200
-88 277 -11 24 -20 50 -20 58 0 7 -4 13 -9 13 -5 0 -7 4 -3 9 3 5 -2 16 -10
24 -8 9 -15 20 -15 26 0 17 -108 220 -168 316 -52 83 -177 258 -212 296 -8 8
-37 42 -65 74 -69 80 -205 212 -295 285 -95 78 -98 80 -140 110 -19 13 -41 30
-48 37 -7 7 -17 13 -22 13 -5 0 -15 6 -22 13 -31 30 -350 227 -513 317 -56 31
-309 158 -400 201 -95 44 -254 107 -259 101 -3 -3 -6 -1 -6 4 0 5 -21 16 -47
23 -27 8 -52 16 -58 20 -5 3 -14 7 -20 8 -5 1 -44 14 -85 29 -94 33 -198 65
-227 69 -12 2 -27 6 -33 10 -5 3 -23 9 -38 11 -15 3 -40 9 -57 14 -40 13 -254
59 -308 66 -23 4 -49 9 -57 13 -8 4 -32 7 -52 7 -21 -1 -38 1 -38 4 0 3 -17 6
-37 8 -20 1 -54 7 -75 12 -45 13 -45 14 -53 220 -7 186 -14 246 -40 360 -3 14
-8 41 -11 60 -3 19 -8 38 -11 42 -4 7 -7 21 -19 75 -8 39 -75 228 -85 237 -5
6 -9 16 -9 24 0 8 -9 26 -20 42 -11 15 -17 30 -13 34 3 3 1 6 -5 6 -7 0 -12 7
-12 15 0 8 -4 15 -8 15 -4 0 -13 12 -19 28 -16 35 -34 63 -54 82 -9 8 -18 20
-20 27 -11 32 -175 207 -264 282 -51 42 -175 125 -195 129 -8 2 -22 10 -30 17
-8 7 -17 14 -20 14 -3 0 -12 2 -20 5 -8 2 -33 10 -55 18 -22 7 -44 13 -50 14
-5 0 -21 4 -35 7 -35 10 -111 15 -135 9z m646 -2504 c8 -136 8 -151 10 -248 0
-25 0 -52 0 -60 0 -8 0 -37 0 -65 1 -27 1 -302 1 -610 0 -652 -5 -961 -27
-1700 -3 -93 -8 -260 -11 -370 -3 -110 -7 -256 -9 -325 -2 -69 -7 -251 -10
-405 -10 -430 -11 -475 -17 -481 -9 -8 -78 30 -122 68 -91 77 -253 246 -345
358 -31 38 -33 40 -93 120 -31 41 -65 84 -75 95 -10 11 -31 38 -47 60 -17 22
-37 47 -46 55 -8 8 -33 38 -55 65 -49 62 -119 138 -164 179 -19 17 -42 38 -50
46 -9 8 -28 23 -41 32 -14 10 -43 30 -65 45 -82 58 -258 140 -350 164 -75 19
-161 41 -175 44 -8 2 -15 4 -15 5 0 1 -11 3 -25 6 -24 4 -200 43 -265 60 -5 1
-21 5 -35 8 -14 3 -43 10 -65 16 -54 14 -90 23 -142 34 -7 1 -16 5 -19 9 -4 4
-15 7 -25 7 -10 0 -53 14 -96 31 -43 17 -82 32 -88 33 -63 12 -156 115 -170
187 -16 85 -27 319 -15 319 3 0 5 12 5 28 -1 15 1 32 4 37 3 6 6 15 7 20 17
91 78 240 114 275 3 3 18 22 33 43 28 37 81 91 130 133 40 33 141 99 150 96 4
-1 7 2 7 6 0 9 30 24 255 122 154 67 496 240 515 260 3 3 16 11 30 17 14 7 43
24 65 37 22 14 61 37 88 52 26 15 47 31 47 36 0 4 6 8 14 8 11 0 231 152 246
170 3 3 23 19 45 36 43 31 87 68 117 97 10 9 20 17 23 17 3 0 13 8 23 18 10 9
51 46 92 82 123 108 358 348 460 470 45 53 165 179 173 180 4 0 8 -10 8 -22z
m1633 -309 c32 -5 71 -11 85 -14 38 -5 81 -15 126 -27 22 -6 45 -11 50 -12 75
-16 295 -109 303 -128 2 -4 9 -8 14 -8 18 0 151 -104 206 -162 57 -58 134
-157 154 -198 6 -14 19 -33 27 -42 8 -10 10 -18 5 -18 -5 0 -4 -4 2 -8 26 -16
122 -261 145 -369 7 -32 14 -65 16 -73 17 -73 22 -269 10 -380 -8 -73 -51
-230 -78 -283 -12 -23 -21 -43 -20 -45 5 -9 -114 -217 -143 -248 -22 -23 -46
-54 -46 -59 0 -8 -144 -147 -180 -174 -19 -14 -37 -28 -40 -31 -5 -6 -52 -37
-85 -57 -30 -18 -155 -82 -158 -81 -1 1 -33 -9 -72 -22 -38 -13 -72 -23 -75
-23 -3 0 -15 -3 -28 -8 -23 -9 -67 -19 -109 -24 -11 -2 -29 -5 -40 -9 -18 -5
-62 -12 -149 -23 -109 -13 -607 -4 -633 11 -6 4 -11 2 -11 -4 0 -6 -5 -8 -11
-5 -6 4 -56 9 -112 11 -70 3 -106 9 -116 19 -13 12 -15 176 -16 1142 -1 885 1
1133 11 1153 13 27 75 61 174 98 30 11 64 23 75 28 11 4 25 8 30 9 6 2 34 10
63 18 28 9 52 14 52 11 0 -3 6 -2 13 3 6 4 19 9 27 10 23 4 71 11 114 18 22 3
41 7 43 8 7 8 325 4 377 -4z m550 -3122 c8 9 375 11 407 2 15 -4 32 -3 40 1 7
5 18 6 24 2 5 -4 21 -7 35 -8 120 -8 366 -69 495 -125 17 -7 32 -13 35 -14 13
-4 106 -51 110 -56 3 -3 12 -8 20 -11 9 -3 52 -33 95 -66 98 -74 170 -148 249
-257 62 -84 148 -281 163 -370 7 -42 11 -60 13 -60 1 0 3 -11 5 -25 2 -14 6
-41 10 -60 10 -48 12 -354 3 -415 -15 -101 -21 -133 -44 -227 -1 -5 -3 -9 -4
-10 -1 -2 -4 -12 -5 -23 -3 -21 -46 -137 -73 -195 -26 -58 -77 -132 -123 -181
-47 -49 -159 -135 -159 -122 0 4 -4 3 -8 -3 -9 -14 -181 -94 -214 -100 -5 -1
-9 -2 -10 -4 -2 -1 -10 -3 -18 -5 -8 -2 -53 -16 -100 -30 -84 -25 -103 -30
-157 -40 -16 -3 -39 -8 -53 -11 -25 -6 -68 -12 -130 -19 -19 -2 -35 -4 -35 -5
0 -3 -94 -10 -162 -12 -40 -2 -73 -7 -73 -11 0 -4 -7 -4 -16 1 -9 5 -31 6 -48
3 -33 -7 -336 -4 -446 4 -36 3 -85 6 -110 8 -25 2 -51 6 -58 11 -7 4 -12 2
-12 -4 0 -6 -5 -8 -11 -5 -10 7 -26 10 -114 19 -27 3 -63 8 -80 11 -34 6 -71
12 -130 21 -22 3 -44 7 -50 9 -33 7 -92 19 -105 20 -8 1 -22 5 -30 7 -8 3 -40
11 -70 17 -66 14 -92 21 -230 61 -128 38 -122 36 -140 43 -8 3 -47 16 -87 28
-40 13 -85 32 -100 44 l-27 22 -1 899 c0 494 3 912 7 929 4 16 18 38 30 50 30
27 209 115 253 125 6 1 17 6 26 10 29 16 244 68 309 75 36 4 77 8 93 10 48 6
169 16 237 20 36 2 103 7 150 10 47 3 150 7 228 10 79 2 146 6 149 9 3 3 13 1
23 -4 10 -5 20 -6 24 -3z m-4369 -137 c11 4 24 5 28 3 4 -3 56 -6 115 -8 105
-3 217 -11 297 -20 22 -3 63 -7 91 -9 28 -3 67 -7 85 -10 19 -3 59 -8 89 -11
56 -5 149 -20 185 -29 11 -3 41 -11 68 -18 26 -6 47 -15 47 -20 0 -4 7 -8 16
-8 16 0 134 -51 164 -71 8 -5 27 -15 43 -22 15 -6 27 -15 27 -19 0 -4 6 -8 14
-8 8 0 16 -4 18 -8 2 -4 46 -36 98 -72 76 -51 309 -228 403 -305 9 -8 21 -15
25 -15 5 0 17 -8 28 -17 31 -29 94 -74 94 -69 0 3 15 -5 33 -17 18 -12 51 -31
75 -41 l42 -19 -5 -81 c-2 -45 -7 -139 -10 -211 -3 -71 -7 -157 -10 -190 -2
-33 -7 -96 -10 -140 -5 -78 -11 -153 -20 -225 -2 -19 -7 -66 -10 -103 -4 -37
-8 -78 -11 -90 -3 -12 -7 -42 -9 -67 -5 -54 -11 -91 -30 -190 -8 -41 -17 -88
-20 -105 -13 -77 -17 -91 -28 -114 -7 -13 -21 -26 -32 -27 -11 -2 -78 -22
-149 -44 -71 -22 -142 -43 -159 -46 -17 -2 -34 -7 -39 -10 -8 -5 -22 -8 -79
-18 -19 -3 -45 -8 -59 -10 -78 -13 -170 -22 -350 -32 -58 -3 -130 -7 -160 -10
-30 -2 -93 -6 -140 -8 -47 -3 -85 -5 -85 -6 0 -3 -186 -11 -311 -14 -66 -1
-125 -6 -132 -10 -7 -4 -12 -4 -12 1 0 4 -53 8 -118 9 -147 1 -205 7 -352 40
-130 28 -387 144 -460 207 -11 9 -23 17 -26 17 -21 0 -175 137 -249 221 -82
92 -93 107 -138 181 -79 130 -125 267 -142 419 -3 31 -8 67 -11 80 -17 83 -23
432 -10 539 3 25 8 63 11 85 9 82 15 121 20 143 10 43 18 82 31 140 23 109 66
180 158 259 28 24 247 117 286 121 3 0 19 6 35 12 17 7 39 14 50 16 23 5 45
10 100 23 92 22 254 39 433 46 52 2 97 6 99 9 3 3 15 1 27 -3 11 -5 30 -5 41
-1z"/>
</g>
</svg>
