<svg xmlns="http://www.w3.org/2000/svg" viewBox="0 0 118.02 143.59"><defs fill="#000000"><style>.cls-1{fill:#ab8756;}.cls-2{fill:#adaa87;}</style></defs><g id="Layer_2" data-name="Layer 2"><g id="Layer_1-2" data-name="Layer 1"><path class="cls-1" d="M55.41,16.75a30.69,30.69,0,0,0-.11-3.59c-.28-1.78-1.49-3.06-2.36-4.54C51.86,6.77,50.17,5.5,48.68,4a14.94,14.94,0,0,1-1.92-2.29A1,1,0,0,1,47.39.09a2.15,2.15,0,0,1,1,0A10.75,10.75,0,0,1,53.7,2.51a19.39,19.39,0,0,1,5.68,7.23,28.53,28.53,0,0,1,2.06,11.33c0,.7.15,1,.91,1.07,10.44,1.35,19.81,5.45,28.44,11.3a34.13,34.13,0,0,1,12.82,15.81,17.39,17.39,0,0,1,1.3,9.6,10.39,10.39,0,0,1-2.78,6c-.35.33-.3.51.11.72a27.14,27.14,0,0,1,9.16,8,26.38,26.38,0,0,1,3.69,7.32A52.39,52.39,0,0,1,118,94.77a17.79,17.79,0,0,1-6.17,15.09,15.93,15.93,0,0,1-10.87,4.87c-6.27.14-12.54.14-18.8-.13a43.18,43.18,0,0,0-8.88.42,23.82,23.82,0,0,0-4.67,1.3c-1.6.62-2,2-2.31,3.43-1.48,6.7.48,12.26,5.64,16.71a10.32,10.32,0,0,1,3.21,4.78,3.39,3.39,0,0,1,.11.43c.08.44,0,.56-.47.35a38.8,38.8,0,0,0-3.91-1.7,27.72,27.72,0,0,0-13.92-1.42,52.08,52.08,0,0,0-13.76,4.43c-.26.11-.56.42-.8.16s0-.6.12-.9A72.26,72.26,0,0,1,49,131.77c.75-1.09,1.44-2.22,2.18-3.31a6.37,6.37,0,0,0,.94-5.22,6.09,6.09,0,0,1-.1-.73,1.89,1.89,0,0,0,.12-.88q0-7.86,0-15.71c0-.32,0-.64-.06-1,1.47-6.26,1.7-12.65,2-19a2.16,2.16,0,0,0,.45-1.41,1.3,1.3,0,0,0,.13-.8c.07-2.87.11-5.74.19-8.6.4-13.49.86-27,.6-40.49A22.26,22.26,0,0,0,55.31,31a3.15,3.15,0,0,0,.12-.58Q55.43,23.56,55.41,16.75Zm8.1,72.48c0,3.64,0,7.29,0,10.93a1,1,0,0,0,.8,1.14,57.38,57.38,0,0,0,23.77,3.3,28.44,28.44,0,0,0,8.73-1.9c2.58-1,4.71-2.67,5.67-5.33a19.86,19.86,0,0,0,1-11.76A13.72,13.72,0,0,0,95.79,76a22.47,22.47,0,0,0-10.11-2c-4.44,0-8.88.18-13.31.6a19.06,19.06,0,0,0-8.15,2.54,1.28,1.28,0,0,0-.72,1.25C63.53,82,63.51,85.6,63.51,89.23Zm0-37.41v13.7c0,.46-.05.89.65.91,2.42.09,4.84.32,7.26.34a24.7,24.7,0,0,0,8.89-1.39C86.71,63,91.58,55.24,89.68,47.65c-1.5-6-4.74-10.33-11.06-11.91a20.6,20.6,0,0,0-14.36,1.33,1.22,1.22,0,0,0-.79,1.26C63.5,42.83,63.49,47.32,63.49,51.82Z" fill="#000000"/><path class="cls-2" d="M52.08,105c0,.33.06.65.06,1q0,7.86,0,15.71a1.89,1.89,0,0,1-.12.88c-.57-1-1-2-1.56-3A5.59,5.59,0,0,0,43.78,117a42.36,42.36,0,0,1-15.2,1.37,64,64,0,0,1-11.36-1.89A20.78,20.78,0,0,1,2.7,103.56,37.42,37.42,0,0,1,.07,87.43a36.31,36.31,0,0,1,1.7-10.54,13.34,13.34,0,0,1,3.25-5A3.67,3.67,0,0,0,6.29,69C6,65.22,7.5,62,8.81,58.62c2.32-6,6.61-10.16,11.9-13.51a78.63,78.63,0,0,1,16.16-7.72,25.68,25.68,0,0,0,9.85-6.77,38.33,38.33,0,0,0,8-11.94,7.36,7.36,0,0,1,.72-1.93q0,6.81,0,13.63a3.15,3.15,0,0,1-.12.58A22.2,22.2,0,0,0,53,33.38,62.25,62.25,0,0,1,41.49,43.82a72.23,72.23,0,0,1-12.14,6.42c-4.71,2.07-7.78,5.8-7,11.91a3.54,3.54,0,0,0,2.33,3.14c.49.2,1,.4,1.46.56,3.12,1,6.35,1.52,9.51,2.36a15.92,15.92,0,0,1,8.07,4.73c1.35,1.53,2.62,3.14,3.89,4.74a34.64,34.64,0,0,0,5.39,5.89,3.35,3.35,0,0,0,1.51.93,2.16,2.16,0,0,1-.45,1.41,13.08,13.08,0,0,1-2.48-1.38c-2.35-1.59-4.45-3.54-6.85-5.08a16.71,16.71,0,0,0-5.87-2.71c-1.67-.3-3.36-.44-5-.6a47.89,47.89,0,0,0-10.77-.09,22.17,22.17,0,0,0-7.39,2A4.73,4.73,0,0,0,13,81,26.55,26.55,0,0,0,12.32,84a31.87,31.87,0,0,0,0,10.36A11.77,11.77,0,0,0,14,99.29a18.25,18.25,0,0,0,15.47,8.37c4.39.08,8.78-.37,13.16-.62a24.46,24.46,0,0,0,5.25-.76C49.28,105.87,50.68,105.4,52.08,105Z" fill="#000000"/></g></g></svg>