<svg xmlns="http://www.w3.org/2000/svg" version="1.1" xmlns:xlink="http://www.w3.org/1999/xlink" width="512" height="512" x="0" y="0" viewBox="0 0 512 512" style="enable-background:new 0 0 512 512" xml:space="preserve"><g><path d="M512 166c0-2.333-.591-4.724-1.584-6.708L458.708 55.875C451.036 40.532 435.613 31 418.459 31H93.541c-17.154 0-32.577 9.532-40.25 24.875L1.583 159.292A15.3 15.3 0 0 0 0 166c0 .104.013.606.018.71.227 24.194 11.955 45.685 29.982 59.249V436c0 24.813 20.187 45 45 45h362c24.813 0 45-20.187 45-45V225.959c18.531-13.943 30-35.923 30-59.959zm-75 45c-19.555 0-36.228-12.542-42.42-30h84.84c-6.192 17.458-22.865 30-42.42 30zM32.58 181h84.839c-6.192 17.458-22.865 30-42.42 30s-36.227-12.542-42.419-30zM431.876 69.292 472.729 151h-85.018l-22.5-90h53.248a14.918 14.918 0 0 1 13.417 8.292zM356.789 151H271V61h63.288zm2.631 30c-6.192 17.458-22.865 30-42.42 30-19.588 0-36.782-12.72-43.258-30zM241 61v90h-86.788l22.5-90zm-2.742 120c-6.476 17.28-23.67 30-43.258 30-19.555 0-36.228-12.542-42.42-30zM80.125 69.292A14.917 14.917 0 0 1 93.541 61h52.247l-22.5 90H39.271zM452 436c0 8.271-6.729 15-15 15H75c-8.271 0-15-6.729-15-15V239.491A75.054 75.054 0 0 0 75 241c24.508 0 46.305-11.818 60-30.052C148.695 229.182 170.492 241 195 241c20.03 0 38.999-7.759 53.412-21.847a77.171 77.171 0 0 0 7.588-8.606 77.372 77.372 0 0 0 7.588 8.607C278.001 233.241 296.97 241 317 241c24.508 0 46.306-11.818 60-30.052C390.694 229.182 412.492 241 437 241c5.136 0 10.152-.521 15-1.509z" fill="#ffffff" opacity="1" data-original="#000000"></path><path d="M406 331h-45c-8.284 0-15 6.716-15 15s6.716 15 15 15h27.42c-6.192 17.458-22.865 30-42.42 30-24.813 0-45-20.187-45-45s20.187-45 45-45c12.02 0 23.32 4.681 31.82 13.181 5.857 5.857 15.355 5.857 21.213 0 5.858-5.858 5.857-15.355 0-21.213C384.867 278.801 366.033 271 346 271c-41.355 0-75 33.645-75 75s33.645 75 75 75 75-33.645 75-75c0-8.284-6.716-15-15-15z" fill="#ffffff" opacity="1" data-original="#000000"></path></g></svg>