<svg width="566" height="561" viewBox="0 0 566 561" fill="none" xmlns="http://www.w3.org/2000/svg">
<path d="M0.260802 305C0.260802 305 -14.0697 97.5567 169.724 22.139C242.479 -7.71723 324.147 -7.18357 396.945 22.5752C475.67 54.7567 567.201 126.346 565.988 285.233L455.671 276.054C455.671 276.054 451.429 170.149 500.928 113.669C500.928 113.669 418.191 128.497 334.745 204.745C334.745 204.745 276.048 132.025 274.636 49.42C274.636 49.42 224.428 105.198 201.091 197.689C201.091 197.689 140.274 175.096 95.7252 102.372C95.7252 102.372 84.411 221.691 109.161 294.415L0.260802 305Z" fill="#BE9553"/>
<path d="M295.929 407C295.929 407 347.745 278.07 259.219 179L229 215.536C229 215.536 316.303 295.984 295.929 407Z" fill="#BE9553"/>
<path d="M145 223V297.68C145 297.68 244.115 309.658 283 409C282.996 408.996 282.417 273.022 145 223Z" fill="#BE9553"/>
<path d="M344.194 237.323L411.006 209C411.006 209 429.995 332.202 302 420C301.996 420 377.25 330.787 344.194 237.323Z" fill="#BE9553"/>
<path d="M307 425.957C307 425.957 440.515 444.119 515 328.862L443.323 310C443.327 310 418.029 407.095 307 425.957Z" fill="#BE9553"/>
<path d="M552 365.059C552 365.059 490.956 456.094 391.991 457.929C353.093 458.651 315.515 444.017 286.823 417.763C248.67 382.851 159.137 317.318 53.3382 351.671C53.3382 351.671 85.2546 453.841 224.907 476.566C224.907 476.566 110.117 498.763 35 403.107C35 403.107 40.8772 417.75 54.6711 438.26C119.769 535.074 238.561 580.371 352.103 553.229C423.831 536.084 513.191 489.209 552 365.059Z" fill="#BE9553"/>
</svg>
