<svg width="2268" height="2282" viewBox="0 0 2268 2282" fill="none" xmlns="http://www.w3.org/2000/svg">
<g filter="url(#filter0_d_1_61)">
<path d="M459.41 1196.59C459.41 1196.59 425.63 706.82 858.87 528.76C1030.37 458.27 1222.88 459.53 1394.48 529.79C1580.05 605.77 1795.81 774.79 1792.95 1149.92L1532.91 1128.25C1532.91 1128.25 1522.91 878.21 1639.59 744.86C1639.59 744.86 1444.56 779.87 1247.86 959.89C1247.86 959.89 1109.5 788.2 1106.17 593.17C1106.17 593.17 987.82 724.86 932.81 943.23C932.81 943.23 789.45 889.89 684.44 718.19C684.44 718.19 657.77 999.9 716.11 1171.6L459.41 1196.59Z" fill="#BE9553"/>
<path d="M1159.94 1437.46C1159.94 1437.46 1282.88 1131.58 1072.84 896.54L1001.14 983.22C1001.14 983.22 1208.28 1174.08 1159.94 1437.46Z" fill="#BE9553"/>
<path d="M799.47 1001.56V1178.25C799.47 1178.25 1033.92 1206.59 1125.9 1441.63C1125.89 1441.62 1124.52 1119.91 799.47 1001.56Z" fill="#BE9553"/>
<path d="M1271.21 1036.56L1429.57 969.88C1429.57 969.88 1474.58 1259.93 1171.2 1466.63C1171.19 1466.63 1349.56 1256.6 1271.21 1036.56Z" fill="#BE9553"/>
<path d="M1182.86 1481.63C1182.86 1481.63 1499.58 1524.97 1676.27 1249.93L1506.24 1204.92C1506.25 1204.92 1446.24 1436.62 1182.86 1481.63Z" fill="#BE9553"/>
<path d="M1762.95 1336.61C1762.95 1336.61 1618.68 1551.97 1384.79 1556.31C1292.86 1558.02 1204.05 1523.4 1136.24 1461.29C1046.07 1378.7 834.47 1223.67 584.43 1304.94C584.43 1304.94 659.86 1546.64 989.91 1600.4C989.91 1600.4 718.62 1652.91 541.09 1426.62C541.09 1426.62 554.98 1461.26 587.58 1509.78C741.43 1738.81 1022.18 1845.97 1290.52 1781.76C1460.04 1741.2 1671.23 1630.31 1762.95 1336.61Z" fill="#BE9553"/>
<path d="M1133.85 2273.72C981.37 2273.72 833.44 2243.67 694.18 2184.39C627.25 2155.9 562.7 2120.64 502.32 2079.59C442.51 2038.93 386.28 1992.24 335.17 1940.81C284.06 1889.38 237.66 1832.79 197.26 1772.61C156.47 1711.85 121.43 1646.9 93.13 1579.55C34.24 1439.43 4.37 1290.59 4.37 1137.17C4.37 983.75 34.23 834.91 93.13 694.79C121.44 627.44 156.47 562.49 197.26 501.73C237.66 441.55 284.06 384.96 335.17 333.53C386.28 282.1 442.52 235.41 502.32 194.75C562.7 153.7 627.26 118.44 694.18 89.9501C833.44 30.6801 981.36 0.620117 1133.85 0.620117C1286.34 0.620117 1434.26 30.6701 1573.52 89.9501C1640.45 118.44 1705 153.7 1765.39 194.75C1825.2 235.41 1881.43 282.1 1932.54 333.53C1983.65 384.96 2030.05 441.55 2070.45 501.73C2111.24 562.49 2146.28 627.44 2174.58 694.79C2233.47 834.91 2263.34 983.75 2263.34 1137.17C2263.34 1290.59 2233.48 1439.43 2174.58 1579.55C2146.27 1646.89 2111.24 1711.85 2070.45 1772.61C2030.05 1832.79 1983.65 1889.38 1932.54 1940.81C1881.43 1992.24 1825.19 2038.93 1765.39 2079.59C1705.01 2120.64 1640.45 2155.9 1573.52 2184.39C1434.26 2243.67 1286.33 2273.72 1133.85 2273.72ZM1133.85 17.9101C520.57 17.9101 21.63 520.01 21.63 1137.18C21.63 1754.35 520.57 2256.45 1133.85 2256.45C1747.13 2256.45 2246.07 1754.35 2246.07 1137.18C2246.07 520.01 1747.13 17.9101 1133.85 17.9101Z" fill="#BE9553"/>
<path d="M450.74 1797.31L449.74 1795.95L436.77 1777.75L436.78 1777.73L419.26 1753.14L422.38 1754.35C422.49 1754.39 433.7 1758.72 442.04 1758.72C446.03 1758.72 448.65 1757.74 449.8 1755.82L470.22 1721.73L414.01 1642.82L374.81 1651.05C368.08 1652.86 367.24 1670.62 367.48 1677.31L367.6 1680.65L350.17 1656.18L349.79 1655.68L336.18 1636.58H336.21L328.39 1625.6L329.76 1624.19C329.87 1624.26 340.77 1631.34 356.88 1631.34C359.37 1631.34 361.9 1631.17 364.38 1630.83L498.44 1602.7L517.77 1598.59L545.94 1638.14L535.74 1655.07L465.42 1772.47C456.14 1790.69 460.29 1807.32 460.33 1807.49L458.55 1808.32L450.74 1797.31ZM481.21 1703.42L521.08 1636.88L510.85 1622.52L434.93 1638.45L481.21 1703.42Z" fill="#BE9553"/>
<path d="M638.16 1932.19C626.95 1932.19 615.43 1928.56 605.72 1921.96L499.8 1849.94L500.49 1848.12C500.5 1848.12 501.41 1848.24 502.88 1848.24C507.86 1848.24 517.07 1846.98 522.79 1838.57L592.89 1735.47C601.58 1722.68 593.77 1711.34 593.69 1711.22L595.07 1709.82L698.36 1780.05C719.59 1794.48 727.03 1820.85 714.96 1838.83C705.36 1853.13 693.67 1859.79 678.17 1859.79C677.72 1859.79 677.25 1859.78 676.79 1859.77C686.78 1877.51 685.59 1896.53 673.3 1914.89C665.93 1925.88 653.13 1932.19 638.16 1932.19ZM609.68 1901.08C617.41 1906.24 626.14 1909.08 634.3 1909.08C647.31 1909.08 657.03 1902.29 660.97 1890.44C665.68 1876.26 658.03 1859.83 641.48 1848.59L574.84 1803.28L549.32 1840.82C544.4 1848.06 547.21 1858.59 555.59 1864.29L609.67 1901.06L609.68 1901.08ZM651.17 1831.56C659.09 1836.94 667.02 1839.79 674.11 1839.79C678.34 1839.79 682.21 1838.76 685.61 1836.72C692.78 1832.43 696.68 1826.2 696.89 1818.7C697.17 1808.99 691.07 1798.7 680.97 1791.83L680.12 1791.25L680.13 1791.23L630 1757.15C626.31 1754.64 622.13 1753.32 617.9 1753.32C612.11 1753.32 607.09 1755.81 604.14 1760.16L585.81 1787.12L651.17 1831.56Z" fill="#BE9553"/>
<path d="M701.37 1982.55L701.72 1980.64C701.86 1980.63 716.17 1979.58 721.99 1966.86L773.8 1853.57C778.97 1842.27 770.87 1829.59 770.78 1829.47L768.9 1826.58L906.64 1889.57L898.03 1936.04L896.07 1936.07C894.12 1926.88 887.55 1902.35 880.74 1899.24L811.73 1867.68C809.12 1866.49 806.39 1865.88 803.6 1865.88C796.98 1865.88 791.31 1869.29 788.8 1874.78L772.89 1909.57L828.57 1935.03C830.47 1935.9 832.77 1936.34 835.4 1936.34C842.81 1936.34 850.45 1932.83 850.53 1932.8L852.99 1931.66L833.6 1974.05L832.94 1971.19C832.91 1971.05 829.54 1956.96 820.41 1952.79L764.74 1927.36L747.62 1964.79C745.87 1968.62 745.88 1972.98 747.66 1977.07C749.45 1981.2 752.82 1984.56 757.14 1986.54L832.3 2020.91C832.89 2021.18 833.66 2021.31 834.61 2021.32C842.19 2021.32 858.72 2012.61 871.66 2004.45C871.99 2004.25 872.12 2004.16 872.41 2004.16H874.43L841.92 2046.82L701.37 1982.55Z" fill="#BE9553"/>
<path d="M1440.27 2045.45C1440.36 2045.34 1449.23 2034.06 1443.75 2021.19L1394.97 1906.57C1390.1 1895.13 1375.28 1892.58 1375.13 1892.56L1371.73 1892L1511.09 1832.68L1539.62 1870.36L1538.32 1871.83C1538.08 1871.69 1514.38 1857.88 1503.55 1857.88C1502.43 1857.88 1501.49 1858.03 1500.78 1858.34L1430.96 1888.06C1426.54 1889.94 1423.05 1893.25 1421.13 1897.38C1419.22 1901.47 1419.09 1905.88 1420.76 1909.79L1435.74 1944.99L1492.08 1921.01C1500.73 1917.33 1505.18 1903.43 1505.23 1903.28L1506.04 1900.69L1524.3 1943.58L1521.74 1942.15C1521.66 1942.11 1513.9 1937.81 1506.11 1937.81C1503.73 1937.81 1501.57 1938.21 1499.7 1939.01L1443.39 1963L1459.51 2000.87C1461.89 2006.46 1467.74 2010.07 1474.41 2010.07C1477 2010.07 1479.55 2009.54 1482 2008.5L1558.05 1976.13C1563.77 1973.7 1569.36 1952.97 1572.41 1935.96C1572.48 1935.58 1572.55 1935.18 1573.04 1934.96L1574.2 1934.46L1583.68 1986.48L1441.44 2047L1440.27 2045.45Z" fill="#BE9553"/>
<path d="M1651.71 1942.37C1651.77 1942.24 1657.2 1928.96 1648.4 1918.08L1570.03 1821.25C1564.29 1814.16 1554.87 1813.1 1549.77 1813.1C1548.14 1813.1 1547.11 1813.22 1547.1 1813.22L1543.68 1813.61L1661.41 1718.33L1699.19 1746.73L1698.34 1748.5C1698.16 1748.45 1680.23 1743.87 1668.02 1743.87C1662.17 1743.87 1659.64 1744.93 1658.54 1745.82L1599.56 1793.56C1595.83 1796.58 1593.38 1800.72 1592.66 1805.22C1591.95 1809.68 1593.04 1813.95 1595.71 1817.26L1619.78 1847L1667.37 1808.48C1674.67 1802.57 1675.14 1787.97 1675.15 1787.83L1675.22 1785.12L1704.55 1821.36L1701.7 1820.68C1701.66 1820.67 1697.94 1819.8 1693.3 1819.8C1689.27 1819.8 1683.63 1820.48 1679.64 1823.7L1632.08 1862.22L1657.97 1894.21C1660.78 1897.68 1665.12 1899.67 1669.88 1899.67C1674.07 1899.67 1678.27 1898.15 1681.69 1895.38L1745.94 1843.38C1750.77 1839.47 1750.46 1818 1748.73 1800.81C1748.69 1800.43 1748.65 1800.03 1749.05 1799.69L1750.03 1798.86L1773.43 1846.3L1653.27 1943.55L1651.71 1942.37Z" fill="#BE9553"/>
<path d="M1110.68 2099.51C1087.31 2094.83 1065.06 2080.23 1055.32 2063.17L1027.26 2014.07L965.78 2001.78L956.87 2046.3C954.24 2059.43 965.11 2068.41 965.22 2068.5L964.39 2070.26L918.91 2061.16L918.83 2059.22C918.97 2059.18 932.45 2055.07 935.08 2041.95L958.64 1924.2C961.54 1909.71 950.76 1900.1 950.65 1900L947.82 1897.53L1070.35 1922.04V1922.07C1084.17 1925.06 1096.19 1932.57 1104.29 1943.3C1112.6 1954.31 1115.77 1967.37 1113.23 1980.09C1108.4 2004.22 1088.62 2019.82 1062.83 2019.82C1059.77 2019.82 1056.66 2019.59 1053.55 2019.14L1076.29 2058.81C1085.3 2074.78 1098.96 2085.97 1112.84 2088.74L1113.82 2088.94L1111.66 2099.71L1110.68 2099.51ZM1046.37 1998.36C1049.74 1999.03 1053.21 1999.38 1056.7 1999.38C1071.92 1999.38 1084.49 1993.17 1088.72 1983.55C1092.51 1974.91 1092.38 1966.22 1088.32 1958.42C1083.53 1949.22 1073.85 1942.49 1061.68 1939.87L1060.97 1939.74L998.81 1927.31C997.53 1927.05 996.22 1926.92 994.93 1926.92C986.93 1926.92 980.04 1931.87 978.41 1938.73L978.35 1939.04L969.56 1982.98L1046.37 1998.36Z" fill="#BE9553"/>
<path d="M1168.35 2087.85C1168.47 2087.78 1180.78 2080.47 1179.86 2066.7L1171.71 1944.82C1170.84 1931.73 1157.62 1925.7 1157.49 1925.64L1157.83 1923.73L1248.63 1917.66C1251.25 1917.49 1253.92 1917.4 1256.57 1917.4C1280.34 1917.4 1304.45 1924.58 1322.73 1937.1C1342.19 1950.44 1353.64 1968.67 1354.97 1988.44C1356.66 2013.76 1348.1 2037.23 1330.86 2054.52C1314.07 2071.36 1289.97 2081.62 1262.98 2083.43L1168.94 2089.72L1168.35 2087.85ZM1259.33 1936.38C1257.29 1936.38 1255.21 1936.45 1253.15 1936.59L1213.37 1939.25C1202.83 1939.95 1194.76 1947.89 1195.36 1956.94L1201.74 2052.42C1202.29 2060.62 1210.2 2067.04 1219.75 2067.04C1220.23 2067.04 1220.71 2067.02 1221.2 2066.99L1261.68 2064.29C1282.03 2062.93 1300.68 2054.7 1314.19 2041.12C1327.08 2028.16 1333.86 2011.5 1332.78 1995.39C1330.56 1962.3 1298.3 1936.38 1259.33 1936.38Z" fill="#BE9553"/>
<path d="M1815.42 1800.66C1815.45 1800.52 1818.8 1786.49 1808.34 1777.04L1696.57 1676.1L1728.75 1640.47L1907.89 1671.33L1914.11 1664.44L1817.14 1576.86C1812.67 1572.82 1807.37 1570.78 1801.38 1570.78C1796.52 1570.78 1793 1572.19 1792.96 1572.2L1791.84 1570.6L1823.46 1535.58L1825.16 1536.53C1825 1537.08 1821.31 1550.23 1832.25 1560.11L1944.01 1661.04L1914.19 1694.06L1735.05 1663.2L1726.47 1672.69L1823.45 1760.27C1827.7 1764.11 1833.07 1766.06 1839.42 1766.06C1844.14 1766.06 1847.66 1764.92 1847.69 1764.91L1851.28 1763.73L1817.13 1801.55L1815.42 1800.66Z" fill="#BE9553"/>
<path d="M157.03 1211.19L155.29 1211.09L165.32 1024.22L167.06 1024.31L214.96 1018.12L215.62 1019.96C207.23 1025.22 185.35 1040.55 184.94 1048.3L182.47 1094.38C185.91 1102.36 188.85 1107.61 197.29 1108.06L319.02 1114.59C319.48 1114.62 319.93 1114.63 320.37 1114.63C334.29 1114.63 341.84 1102.74 341.91 1102.62L343.76 1103.2L341.16 1151.67L339.24 1152.01C339.18 1151.88 333.29 1138.53 317.78 1137.7L195.97 1131.16C195.61 1131.14 195.26 1131.13 194.91 1131.13C187.88 1131.13 184.43 1135.04 179.87 1143.24L177.4 1189.26C176.98 1196.99 197.09 1214.63 204.87 1220.77L204.02 1222.53L157.03 1211.19Z" fill="#BE9553"/>
<path d="M349.53 1005.93C349.49 1005.78 345.35 990.589 332.57 986.349L205.2 944.12C202.5 943.22 199.77 942.77 197.09 942.77C186.72 942.77 180.05 949.529 179.98 949.589L178.31 948.579L193.59 902.49L195.54 902.79C195.55 903.35 196.04 916.68 212.49 922.14L264.9 939.52L305.76 816.27L253.35 798.89C250.65 797.99 247.92 797.54 245.24 797.54C234.9 797.54 228.2 804.3 228.13 804.37L226.46 803.359L241.74 757.27L243.68 757.42C243.7 757.57 246.32 772.17 260.64 776.91L388 819.14C390.21 819.87 392.54 820.25 394.93 820.25C405 820.25 413.2 813.649 413.28 813.579L415.94 811.41L398.5 864.03L397.66 860.689C397.62 860.539 393.7 845.43 380.7 841.13L325.53 822.839L284.68 946.089L339.84 964.38C342.05 965.11 344.38 965.49 346.77 965.49C356.84 965.49 365.04 958.889 365.13 958.819L367.79 956.65L350.37 1009.19L349.53 1005.93Z" fill="#BE9553"/>
<path d="M433.4 786.82C433.4 786.67 432.83 771.66 419.44 764.7L300.72 702.94C297.61 701.32 294.09 700.5 290.27 700.5C281.95 700.5 274.92 704.37 274.85 704.41L271.93 706.04L344.18 567.15L393.31 579.31L393.21 581.27C383.34 582.67 356.94 587.82 353.36 594.7L317.11 664.39C312.39 673.47 315.41 684.43 323.86 688.83L360.38 707.83L389.65 651.57C394.14 642.93 388.17 628.67 388.11 628.53L387.02 625.96L431.22 648.96L428.24 649.44C428.09 649.46 412.94 652 408.14 661.23L378.9 717.48L418.19 737.92C420.5 739.12 423 739.73 425.62 739.73C432.23 739.73 438.58 735.72 441.81 729.51L481.3 653.6C484.28 647.88 474.52 627.31 465.25 611.44C465.05 611.1 464.85 610.75 465.08 610.27L465.64 609.12L509.13 645.31L433.51 790.68L433.4 786.82Z" fill="#BE9553"/>
<path d="M667.63 516.8C667.69 516.67 673.43 503.26 663.47 491.34L585.22 397.75C582.3 394.26 579.09 392.7 574.82 392.7C571.92 392.7 568.59 393.42 565.4 394.2L530.04 423.76C524.1 428.73 524.9 455.46 525.71 465.34L523.84 465.91L500.13 423.81L499.01 422.47L642.58 302.43L643.7 303.77L680.88 334.6L679.98 336.34C679.79 336.29 660.6 331.2 647.84 331.2C641.97 331.2 639.43 332.29 638.33 333.21L602.93 362.81C599.43 370.76 597.59 376.49 603.02 382.98L681.21 476.5C687.7 484.26 696.61 485.42 701.34 485.42C703.88 485.42 705.56 485.1 705.57 485.09L706.41 486.84L669.17 517.98L667.63 516.8Z" fill="#BE9553"/>
<path d="M769.75 433.35C769.85 433.23 779.65 420.92 775.51 408.1L734.28 280.4C729.47 265.5 715.54 263.38 714.95 263.29L714.78 261.35L760.99 246.43L761.9 248.18C761.45 248.52 750.99 256.8 756.31 273.29L773.27 325.83L896.83 285.94L879.87 233.4C875.05 218.46 860.69 216.31 860.54 216.29L860.37 214.35L906.58 199.43L907.6 201.08C907.5 201.19 897.27 211.93 901.9 226.28L943.13 353.98C947.34 367.02 962.41 371.05 962.56 371.09L965.9 371.95L913.14 388.98L915.34 386.33C915.44 386.21 925.3 374.12 921.1 361.09L903.24 305.77L779.68 345.67L797.54 400.98C801.75 414.02 816.82 418.05 816.97 418.09L820.31 418.95L767.62 435.96L769.75 433.35Z" fill="#BE9553"/>
<path d="M975.94 369.45C976.1 369.37 992.28 361.639 1001.06 341.719L1050.37 203.69L1057.42 183.799L1108.13 180.77L1117.5 199.68L1182.85 330.71C1193.9 349.55 1211.01 355.32 1211.18 355.37L1210.93 357.32L1196.7 358.169L1195.06 358.289L1171.72 359.69L1171.71 359.669L1140.36 361.549L1142.96 359.56C1148.72 355.16 1162.91 342.24 1159.49 335.34L1140.49 297.25L1039.17 303.31L1024.74 343.7C1022.6 350.92 1037.95 361.869 1044.04 365.469L1046.85 367.13L1015.61 369L1015.02 369.06L990.54 370.52L990.55 370.5L976.42 371.34L975.94 369.45ZM1046.8 281.96L1130.37 276.96L1093.26 202.539L1074.78 203.65L1046.8 281.96Z" fill="#BE9553"/>
<path d="M1233 360.57L1236.49 358.96C1236.63 358.9 1250.21 352.47 1251.34 337.81L1261.62 204.01C1262.75 189.36 1250.3 180.9 1250.18 180.82L1246.99 178.7L1299.23 182.71L1299.47 184.66C1298.92 184.84 1285.99 189.33 1284.72 205.79L1274.44 339.59C1273.31 354.25 1285.76 362.67 1285.88 362.76L1289.09 364.88L1233 360.57Z" fill="#BE9553"/>
<path d="M1533.76 467.02L1537.19 466.75C1537.35 466.74 1552.89 465.38 1559.3 453.29L1586.53 401.93L1471.81 341.12L1444.59 392.47C1438.17 404.58 1445.78 418.19 1445.86 418.33L1447.57 421.32L1398.65 395.39L1402 395.09C1402.16 395.08 1417.82 393.53 1424.13 381.63L1486.99 263.07C1494.32 249.24 1486.14 237.77 1485.79 237.29L1487.07 235.82L1529.97 258.56L1529.35 260.43C1529.35 260.43 1528.76 260.35 1527.78 260.35C1523.83 260.35 1513.95 261.67 1507.45 273.92L1481.59 322.7L1596.31 383.52L1622.17 334.74C1629.5 320.91 1621.33 309.44 1620.97 308.96L1622.25 307.49L1665.15 330.23L1664.68 332.11C1664.53 332.11 1649.7 332.26 1642.63 345.59L1579.77 464.15C1573.35 476.26 1580.96 489.87 1581.04 490.01L1582.75 493L1533.76 467.02Z" fill="#BE9553"/>
<path d="M1744.34 603.51C1719.74 603.51 1695.51 594.81 1676.12 579.01C1655.2 561.97 1641.47 538.19 1637.44 512.07C1633.37 485.7 1639.82 460.53 1655.58 441.18C1672.26 420.71 1698.11 408.97 1726.5 408.97C1751.1 408.97 1775.33 417.67 1794.72 433.47C1815.64 450.51 1829.37 474.29 1833.4 500.41C1837.47 526.78 1831.02 551.95 1815.26 571.3C1798.58 591.77 1772.73 603.51 1744.34 603.51ZM1729.09 430.49C1706.92 430.49 1686.67 439.72 1673.55 455.81C1648.54 486.51 1655.74 535.53 1689.28 562.87C1704.28 575.09 1722.88 581.82 1741.65 581.82C1763.99 581.82 1784.27 572.65 1797.3 556.66C1809.16 542.1 1814.46 522.41 1811.82 502.64C1809.09 482.1 1798.35 463.26 1781.58 449.59C1766.47 437.27 1747.83 430.49 1729.09 430.49Z" fill="#BE9553"/>
<path d="M1882.14 800.26C1857.57 800.26 1835.15 785.94 1813.6 756.47C1797.37 734.28 1789.6 714.41 1789.84 695.73C1790.13 673.34 1802.47 653.08 1826.53 635.49L1890.45 588.76C1903.06 579.54 1900.75 565.62 1900.64 565.03L1902.43 564.26L1933.26 606.42L1929.88 604.95C1929.83 604.93 1924.97 602.85 1918.67 602.85C1913.17 602.85 1908.27 604.39 1904.11 607.43L1839.49 654.68C1804.55 680.23 1802 705.32 1830.4 744.16C1847.5 767.55 1863.26 778.44 1880 778.44C1891.47 778.44 1904.06 773.31 1918.51 762.74L1983.09 715.44C1996.03 705.98 1993.41 692.32 1993.29 691.74L1995.08 690.95L2023.75 730.16L2022.45 731.62C2022.41 731.6 2017.9 729.12 2011.6 729.12C2006.32 729.12 2001.33 730.81 1996.77 734.15L1932.89 780.93C1915.36 793.77 1898.29 800.26 1882.14 800.26Z" fill="#BE9553"/>
<path d="M1955.7 1007.02C1936.14 1007.02 1909.55 994.78 1893.97 936.43C1886.12 907.05 1887.19 882.68 1897.14 863.97C1904.68 849.8 1917.61 839.38 1932.62 835.37L1933.69 835.08L1937.71 860.87L1936.84 861.1C1910.9 868.03 1903.11 891.6 1913.67 931.15C1923.01 966.13 1936.83 983.87 1954.74 983.87C1957.3 983.87 1959.99 983.5 1962.72 982.77C1979.39 978.32 1978.11 945.37 1976.75 910.48C1975.15 869.2 1973.33 822.42 2002.28 814.68C2005.44 813.84 2008.68 813.41 2011.91 813.41C2024.41 813.41 2036.66 819.63 2047.34 831.39C2058.94 844.16 2068.41 863.38 2074.71 886.98C2090.54 946.23 2074.31 981.42 2025.12 994.56L2024.05 994.85L2019.93 969.25L2020.8 969.02C2040.68 963.71 2052.59 954.08 2057.21 939.57C2060.9 927.99 2060.06 912.99 2054.55 892.37C2044.46 854.61 2031.5 836.25 2014.93 836.25C2012.79 836.25 2010.55 836.56 2008.28 837.17C1994.5 840.85 1995.94 870.73 1997.47 902.37C1999.6 946.43 2002.01 996.36 1968.72 1005.25C1964.35 1006.42 1959.96 1007.02 1955.7 1007.02Z" fill="#BE9553"/>
<path d="M1930.18 1207.58L1924.21 1043.83L1926.21 1047.13C1926.28 1047.25 1933.86 1059.5 1948.31 1059.5C1948.63 1059.5 1948.95 1059.49 1949.27 1059.48L2083 1054.6C2096.4 1054.11 2104.69 1040.69 2104.77 1040.55L2106.5 1037.69L2112.21 1194.14L2063.48 1207.82L2062.6 1206.07C2070.49 1199.98 2090.91 1182.48 2090.63 1174.72L2087.77 1096.22C2087.4 1086.16 2079.79 1078.29 2070.44 1078.29C2070.24 1078.29 2070.04 1078.29 2069.84 1078.3L2028.7 1079.8L2031.01 1143.18C2031.37 1152.9 2043.6 1162.36 2043.72 1162.46L2045.93 1164.15L1996.14 1165.97L1998.5 1164.08C1998.62 1163.98 2010.54 1154.3 2010.17 1143.91L2007.84 1080.56L1963.58 1082.17C1959.03 1082.34 1954.83 1084.39 1951.73 1087.96C1948.62 1091.55 1947 1096.23 1947.18 1101.15L1950.3 1186.66C1950.54 1193.1 1969.17 1206.17 1985.06 1215.41C1985.39 1215.6 1985.77 1215.82 1985.79 1216.37L1985.84 1217.62L1930.18 1207.58Z" fill="#BE9553"/>
</g>
<defs>
<filter id="filter0_d_1_61" x="0.369995" y="0.620117" width="2266.97" height="2281.1" filterUnits="userSpaceOnUse" color-interpolation-filters="sRGB">
<feFlood flood-opacity="0" result="BackgroundImageFix"/>
<feColorMatrix in="SourceAlpha" type="matrix" values="0 0 0 0 0 0 0 0 0 0 0 0 0 0 0 0 0 0 127 0" result="hardAlpha"/>
<feOffset dy="4"/>
<feGaussianBlur stdDeviation="2"/>
<feComposite in2="hardAlpha" operator="out"/>
<feColorMatrix type="matrix" values="0 0 0 0 0 0 0 0 0 0 0 0 0 0 0 0 0 0 0.25 0"/>
<feBlend mode="normal" in2="BackgroundImageFix" result="effect1_dropShadow_1_61"/>
<feBlend mode="normal" in="SourceGraphic" in2="effect1_dropShadow_1_61" result="shape"/>
</filter>
</defs>
</svg>
