<svg xmlns="http://www.w3.org/2000/svg" version="1.1" xmlns:xlink="http://www.w3.org/1999/xlink" width="512" height="512" x="0" y="0" viewBox="0 0 682.667 682.667" style="enable-background:new 0 0 512 512" xml:space="preserve" class=""><g><defs><clipPath id="a" clipPathUnits="userSpaceOnUse"><path d="M0 512h512V0H0Z" fill="#664485" opacity="1" data-original="#000000" class=""></path></clipPath></defs><g clip-path="url(#a)" transform="matrix(1.33333 0 0 -1.33333 0 682.667)"><path d="M0 0h413.711c23 0 41.644 18.645 41.644 41.644 0 10.171-8.245 18.417-18.417 18.417H-23.228c-10.171 0-18.417-8.246-18.417-18.417C-41.645 18.645-23 0 0 0Z" style="stroke-width:15;stroke-linecap:round;stroke-linejoin:round;stroke-miterlimit:10;stroke-dasharray:none;stroke-opacity:1" transform="translate(49.145 20.625)" fill="none" stroke="#664485" stroke-width="15" stroke-linecap="round" stroke-linejoin="round" stroke-miterlimit="10" stroke-dasharray="none" stroke-opacity="" data-original="#000000" opacity="1"></path><path d="M0 0c11.395 2.675 23.187 7.64 32.182 16.635 18.793 18.793 20.003 49.796 19.466 63.866a8.202 8.202 0 0 1-7.884 7.884c-10.756.41-31.403-.21-48.93-8.916" style="stroke-width:15;stroke-linecap:round;stroke-linejoin:round;stroke-miterlimit:10;stroke-dasharray:none;stroke-opacity:1" transform="translate(328.098 80.686)" fill="none" stroke="#664485" stroke-width="15" stroke-linecap="round" stroke-linejoin="round" stroke-miterlimit="10" stroke-dasharray="none" stroke-opacity="" data-original="#000000" opacity="1"></path><path d="M0 0c8.563 7.427 34.21 32.116 34.21 61.448 0 26.577-21.067 49.355-31.396 58.925a8.202 8.202 0 0 1-11.149 0c-10.328-9.57-31.395-32.348-31.395-58.925C-39.73 32.116-14.084 7.427-5.521 0" style="stroke-width:15;stroke-linecap:round;stroke-linejoin:round;stroke-miterlimit:10;stroke-dasharray:none;stroke-opacity:1" transform="translate(291.822 80.686)" fill="none" stroke="#664485" stroke-width="15" stroke-linecap="round" stroke-linejoin="round" stroke-miterlimit="10" stroke-dasharray="none" stroke-opacity="" data-original="#000000" opacity="1"></path><path d="M0 0c-17.527 8.706-38.175 9.326-48.931 8.916a8.203 8.203 0 0 1-7.883-7.884c-.537-14.07.673-45.074 19.465-63.866 8.995-8.995 20.788-13.96 32.183-16.635" style="stroke-width:15;stroke-linecap:round;stroke-linejoin:round;stroke-miterlimit:10;stroke-dasharray:none;stroke-opacity:1" transform="translate(255.192 160.155)" fill="none" stroke="#664485" stroke-width="15" stroke-linecap="round" stroke-linejoin="round" stroke-miterlimit="10" stroke-dasharray="none" stroke-opacity="" data-original="#000000" opacity="1"></path><path d="M0 0c11.258 4.455 20.3 13.708 24.25 25.698 1.668 5.061-2.103 10.273-7.432 10.273h-80.583" style="stroke-width:15;stroke-linecap:round;stroke-linejoin:round;stroke-miterlimit:10;stroke-dasharray:none;stroke-opacity:1" transform="translate(436.592 80.686)" fill="none" stroke="#664485" stroke-width="15" stroke-linecap="round" stroke-linejoin="round" stroke-miterlimit="10" stroke-dasharray="none" stroke-opacity="" data-original="#000000" opacity="1"></path><path d="M0 0v36.738c0 6.381-6.22 10.899-12.29 8.931-9.035-2.929-19.131-4.609-29.839-4.686-11.295-.082-21.995 1.595-31.538 4.646-6.038 1.93-12.194-2.625-12.194-8.963v-52.693" style="stroke-width:15;stroke-linecap:round;stroke-linejoin:round;stroke-miterlimit:10;stroke-dasharray:none;stroke-opacity:1" transform="translate(422.77 181.435)" fill="none" stroke="#664485" stroke-width="15" stroke-linecap="round" stroke-linejoin="round" stroke-miterlimit="10" stroke-dasharray="none" stroke-opacity="" data-original="#000000" opacity="1"></path><path d="M0 0v26.34" style="stroke-width:15;stroke-linecap:round;stroke-linejoin:round;stroke-miterlimit:10;stroke-dasharray:none;stroke-opacity:1" transform="translate(422.77 116.656)" fill="none" stroke="#664485" stroke-width="15" stroke-linecap="round" stroke-linejoin="round" stroke-miterlimit="10" stroke-dasharray="none" stroke-opacity="" data-original="#000000" opacity="1"></path><path d="M0 0c.909-16.021-10.309-29.936-24.692-30.107-13.95-.167-25.304 12.402-25.304 27.931 0 19.148 14.558 41.606 21.469 51.188 1.746 2.42 5.347 2.415 7.078-.016C-14.817 39.68-1.037 18.279 0 0Z" style="stroke-width:15;stroke-linecap:round;stroke-linejoin:round;stroke-miterlimit:10;stroke-dasharray:none;stroke-opacity:1" transform="translate(404.81 279.884)" fill="none" stroke="#664485" stroke-width="15" stroke-linecap="round" stroke-linejoin="round" stroke-miterlimit="10" stroke-dasharray="none" stroke-opacity="" data-original="#000000" opacity="1"></path><path d="M0 0h94.305c9.051 0 16.389 7.338 16.389 16.389 0 9.052-7.338 16.39-16.389 16.39H0c-9.052 0-16.39-7.338-16.39-16.39C-16.39 7.338-9.052 0 0 0Z" style="stroke-width:15;stroke-linecap:round;stroke-linejoin:round;stroke-miterlimit:10;stroke-dasharray:none;stroke-opacity:1" transform="translate(158.633 300.99)" fill="none" stroke="#664485" stroke-width="15" stroke-linecap="round" stroke-linejoin="round" stroke-miterlimit="10" stroke-dasharray="none" stroke-opacity="" data-original="#000000" opacity="1"></path><path d="M0 0c8.526 0 15.438-6.914 15.435-15.44C15.432-23.962 8.522-30.87 0-30.87" style="stroke-width:15;stroke-linecap:round;stroke-linejoin:round;stroke-miterlimit:10;stroke-dasharray:none;stroke-opacity:1" transform="translate(247.401 364.638)" fill="none" stroke="#664485" stroke-width="15" stroke-linecap="round" stroke-linejoin="round" stroke-miterlimit="10" stroke-dasharray="none" stroke-opacity="" data-original="#000000" opacity="1"></path><path d="M0 0c-8.524 0-15.435 6.91-15.435 15.435v0c0 8.524 6.911 15.435 15.435 15.435" style="stroke-width:15;stroke-linecap:round;stroke-linejoin:round;stroke-miterlimit:10;stroke-dasharray:none;stroke-opacity:1" transform="translate(164.169 333.768)" fill="none" stroke="#664485" stroke-width="15" stroke-linecap="round" stroke-linejoin="round" stroke-miterlimit="10" stroke-dasharray="none" stroke-opacity="" data-original="#000000" opacity="1"></path><path d="M0 0h-83.232c-8.525 0-15.435 6.911-15.435 15.435 0 8.524 6.91 15.435 15.435 15.435H0c8.526 0 15.438-6.914 15.435-15.44v-.001C15.432 6.907 8.522 0 0 0Z" style="stroke-width:15;stroke-linecap:round;stroke-linejoin:round;stroke-miterlimit:10;stroke-dasharray:none;stroke-opacity:1" transform="translate(247.401 364.638)" fill="none" stroke="#664485" stroke-width="15" stroke-linecap="round" stroke-linejoin="round" stroke-miterlimit="10" stroke-dasharray="none" stroke-opacity="" data-original="#000000" opacity="1"></path><path d="m0 0 .013 51.894C.024 76.303-19.761 96.097-44.17 96.097c-24.401 0-44.183-19.782-44.183-44.183V-.002" style="stroke-width:15;stroke-linecap:round;stroke-linejoin:round;stroke-miterlimit:10;stroke-dasharray:none;stroke-opacity:1" transform="translate(249.955 395.279)" fill="none" stroke="#664485" stroke-width="15" stroke-linecap="round" stroke-linejoin="round" stroke-miterlimit="10" stroke-dasharray="none" stroke-opacity="" data-original="#000000" opacity="1"></path><path d="M0 0c-21.923-26.26-35.115-60.061-35.115-96.945 0-.386.001-.77.004-1.153.266-35.459 24.368-65.142 56.965-74.282" style="stroke-width:15;stroke-linecap:round;stroke-linejoin:round;stroke-miterlimit:10;stroke-dasharray:none;stroke-opacity:1" transform="translate(89.519 253.066)" fill="none" stroke="#664485" stroke-width="15" stroke-linecap="round" stroke-linejoin="round" stroke-miterlimit="10" stroke-dasharray="none" stroke-opacity="" data-original="#000000" opacity="1"></path><path d="M0 0a150.85 150.85 0 0 1-44.07-21.761" style="stroke-width:15;stroke-linecap:round;stroke-linejoin:round;stroke-miterlimit:10;stroke-dasharray:none;stroke-opacity:1" transform="translate(161.751 300.99)" fill="none" stroke="#664485" stroke-width="15" stroke-linecap="round" stroke-linejoin="round" stroke-miterlimit="10" stroke-dasharray="none" stroke-opacity="" data-original="#000000" opacity="1"></path><path d="M0 0c-18.576 36.016-51.177 63.619-90.587 75.583" style="stroke-width:15;stroke-linecap:round;stroke-linejoin:round;stroke-miterlimit:10;stroke-dasharray:none;stroke-opacity:1" transform="translate(340.406 225.406)" fill="none" stroke="#664485" stroke-width="15" stroke-linecap="round" stroke-linejoin="round" stroke-miterlimit="10" stroke-dasharray="none" stroke-opacity="" data-original="#000000" opacity="1"></path></g></g></svg>