<svg width="545" height="111" viewBox="0 0 545 111" fill="none" xmlns="http://www.w3.org/2000/svg">
<path d="M86.6667 24.1029L52.8333 2.06124C50.7466 0.715643 48.3163 0 45.8333 0C43.3504 0 40.9201 0.715643 38.8333 2.06124L5 24.1029C3.50737 24.9925 2.26539 26.247 1.39076 27.7484C0.516123 29.2499 0.03755 30.949 0 32.6862V91.6862H37.5V68.4779H54.1667V91.6862H91.6667V32.6862C91.6291 30.949 91.1505 29.2499 90.2759 27.7484C89.4013 26.247 88.1593 24.9925 86.6667 24.1029ZM83.3333 83.3529H62.5V60.1446H29.1667V83.3529H8.33333V32.6862C8.36376 32.3464 8.47885 32.0197 8.6681 31.7358C8.85734 31.4519 9.1147 31.22 9.41667 31.0612L43.25 9.01957C43.9916 8.57105 44.8417 8.33394 45.7083 8.33394C46.575 8.33394 47.4251 8.57105 48.1667 9.01957L82 31.0612C82.302 31.22 82.5593 31.4519 82.7486 31.7358C82.9378 32.0197 83.0529 32.3464 83.0833 32.6862L83.3333 83.3529Z" fill="#AB8756"/>
<path d="M106.177 43.9602V33.8182H153.961V43.9602H136.148V92H123.989V43.9602H106.177ZM173.705 66.7727V92H161.603V33.8182H173.364V56.0625H173.876C174.861 53.4867 176.451 51.4697 178.648 50.0114C180.845 48.5341 183.601 47.7955 186.915 47.7955C189.946 47.7955 192.588 48.4583 194.842 49.7841C197.114 51.0909 198.876 52.9754 200.126 55.4375C201.395 57.8807 202.02 60.8068 202.001 64.2159V92H189.898V66.375C189.917 63.6856 189.236 61.5928 187.853 60.0966C186.489 58.6004 184.576 57.8523 182.114 57.8523C180.467 57.8523 179.008 58.2027 177.739 58.9034C176.489 59.6042 175.504 60.6269 174.785 61.9716C174.084 63.2973 173.724 64.8977 173.705 66.7727ZM223.968 92.8239C221.184 92.8239 218.703 92.3409 216.525 91.375C214.347 90.3902 212.623 88.9413 211.354 87.0284C210.104 85.0966 209.479 82.6913 209.479 79.8125C209.479 77.3883 209.924 75.3523 210.815 73.7045C211.705 72.0568 212.917 70.7311 214.451 69.7273C215.985 68.7235 217.728 67.9659 219.678 67.4545C221.648 66.9432 223.712 66.5833 225.871 66.375C228.409 66.1098 230.455 65.8636 232.008 65.6364C233.561 65.3902 234.688 65.0303 235.388 64.5568C236.089 64.0833 236.44 63.3826 236.44 62.4545V62.2841C236.44 60.4848 235.871 59.0928 234.735 58.108C233.618 57.1231 232.027 56.6307 229.962 56.6307C227.784 56.6307 226.051 57.1136 224.763 58.0795C223.476 59.0265 222.623 60.2197 222.207 61.6591L211.013 60.75C211.582 58.0985 212.699 55.8068 214.366 53.875C216.032 51.9242 218.182 50.428 220.815 49.3864C223.466 48.3258 226.534 47.7955 230.019 47.7955C232.443 47.7955 234.763 48.0795 236.979 48.6477C239.214 49.2159 241.193 50.0966 242.917 51.2898C244.659 52.483 246.032 54.017 247.036 55.892C248.04 57.7481 248.542 59.9735 248.542 62.5682V92H237.065V85.9489H236.724C236.023 87.3125 235.085 88.5152 233.911 89.5568C232.737 90.5795 231.326 91.3845 229.678 91.9716C228.031 92.5398 226.127 92.8239 223.968 92.8239ZM227.434 84.4716C229.214 84.4716 230.786 84.1212 232.15 83.4205C233.513 82.7008 234.584 81.7348 235.36 80.5227C236.137 79.3106 236.525 77.9375 236.525 76.4034V71.7727C236.146 72.0189 235.625 72.2462 234.962 72.4545C234.318 72.6439 233.589 72.8239 232.775 72.9943C231.96 73.1458 231.146 73.2879 230.332 73.4205C229.517 73.5341 228.779 73.6383 228.116 73.733C226.695 73.9413 225.455 74.2727 224.394 74.7273C223.334 75.1818 222.51 75.7973 221.923 76.5739C221.335 77.3314 221.042 78.2784 221.042 79.4148C221.042 81.0625 221.638 82.322 222.832 83.1932C224.044 84.0455 225.578 84.4716 227.434 84.4716ZM257.931 92V48.3636H270.033V92H257.931ZM264.011 42.7386C262.211 42.7386 260.668 42.142 259.38 40.9489C258.111 39.7367 257.477 38.2879 257.477 36.6023C257.477 34.9356 258.111 33.5057 259.38 32.3125C260.668 31.1004 262.211 30.4943 264.011 30.4943C265.81 30.4943 267.344 31.1004 268.613 32.3125C269.901 33.5057 270.545 34.9356 270.545 36.6023C270.545 38.2879 269.901 39.7367 268.613 40.9489C267.344 42.142 265.81 42.7386 264.011 42.7386ZM298.471 92V33.8182H310.772V57.8239H335.744V33.8182H348.016V92H335.744V67.9659H310.772V92H298.471ZM377.647 92.8523C373.234 92.8523 369.418 91.9148 366.198 90.0398C362.997 88.1458 360.526 85.5133 358.783 82.142C357.041 78.7519 356.17 74.822 356.17 70.3523C356.17 65.8447 357.041 61.9053 358.783 58.5341C360.526 55.1439 362.997 52.5114 366.198 50.6364C369.418 48.7424 373.234 47.7955 377.647 47.7955C382.06 47.7955 385.867 48.7424 389.067 50.6364C392.287 52.5114 394.768 55.1439 396.511 58.5341C398.253 61.9053 399.124 65.8447 399.124 70.3523C399.124 74.822 398.253 78.7519 396.511 82.142C394.768 85.5133 392.287 88.1458 389.067 90.0398C385.867 91.9148 382.06 92.8523 377.647 92.8523ZM377.704 83.4773C379.711 83.4773 381.388 82.9091 382.732 81.7727C384.077 80.6174 385.09 79.0455 385.772 77.0568C386.473 75.0682 386.823 72.8049 386.823 70.267C386.823 67.7292 386.473 65.4659 385.772 63.4773C385.09 61.4886 384.077 59.9167 382.732 58.7614C381.388 57.6061 379.711 57.0284 377.704 57.0284C375.677 57.0284 373.973 57.6061 372.59 58.7614C371.227 59.9167 370.194 61.4886 369.494 63.4773C368.812 65.4659 368.471 67.7292 368.471 70.267C368.471 72.8049 368.812 75.0682 369.494 77.0568C370.194 79.0455 371.227 80.6174 372.59 81.7727C373.973 82.9091 375.677 83.4773 377.704 83.4773ZM434.977 73.4205V48.3636H447.079V92H435.46V84.0739H435.005C434.02 86.6307 432.382 88.6856 430.09 90.2386C427.817 91.7917 425.043 92.5682 421.766 92.5682C418.85 92.5682 416.283 91.9053 414.067 90.5795C411.852 89.2538 410.119 87.3693 408.869 84.9261C407.638 82.483 407.013 79.5568 406.994 76.1477V48.3636H419.096V73.9886C419.115 76.5644 419.806 78.6004 421.17 80.0966C422.533 81.5928 424.361 82.3409 426.653 82.3409C428.111 82.3409 429.475 82.0095 430.744 81.3466C432.013 80.6648 433.035 79.661 433.812 78.3352C434.607 77.0095 434.996 75.3712 434.977 73.4205ZM493.066 60.8068L481.987 61.4886C481.797 60.5417 481.39 59.6894 480.765 58.9318C480.14 58.1553 479.316 57.5398 478.293 57.0852C477.29 56.6117 476.087 56.375 474.685 56.375C472.81 56.375 471.229 56.7727 469.941 57.5682C468.653 58.3447 468.009 59.3864 468.009 60.6932C468.009 61.7348 468.426 62.6155 469.259 63.3352C470.093 64.0549 471.522 64.6326 473.549 65.0682L481.447 66.6591C485.689 67.5303 488.852 68.9318 490.935 70.8636C493.019 72.7955 494.06 75.3333 494.06 78.4773C494.06 81.3371 493.218 83.8466 491.532 86.0057C489.865 88.1648 487.574 89.8504 484.657 91.0625C481.759 92.2557 478.416 92.8523 474.629 92.8523C468.852 92.8523 464.25 91.6496 460.822 89.2443C457.413 86.8201 455.415 83.5246 454.827 79.358L466.731 78.733C467.091 80.4943 467.962 81.839 469.344 82.767C470.727 83.6761 472.498 84.1307 474.657 84.1307C476.778 84.1307 478.483 83.7235 479.771 82.9091C481.077 82.0758 481.74 81.0057 481.759 79.6989C481.74 78.6004 481.276 77.7008 480.367 77C479.458 76.2803 478.057 75.7311 476.163 75.3523L468.606 73.8466C464.344 72.9943 461.172 71.517 459.089 69.4148C457.024 67.3125 455.992 64.6326 455.992 61.375C455.992 58.572 456.75 56.1572 458.265 54.1307C459.799 52.1042 461.949 50.5417 464.714 49.4432C467.498 48.3447 470.755 47.7955 474.487 47.7955C479.998 47.7955 484.335 48.9602 487.498 51.2898C490.68 53.6193 492.536 56.7917 493.066 60.8068ZM521.567 92.8523C517.079 92.8523 513.215 91.9432 509.977 90.125C506.757 88.2879 504.276 85.6932 502.533 82.3409C500.791 78.9697 499.92 74.983 499.92 70.3807C499.92 65.892 500.791 61.9527 502.533 58.5625C504.276 55.1723 506.728 52.5303 509.891 50.6364C513.073 48.7424 516.804 47.7955 521.085 47.7955C523.963 47.7955 526.643 48.2595 529.124 49.1875C531.624 50.0966 533.802 51.4697 535.658 53.3068C537.533 55.1439 538.992 57.4545 540.033 60.2386C541.075 63.0038 541.596 66.2424 541.596 69.9545V73.2784H504.749V65.7784H530.204C530.204 64.036 529.825 62.4924 529.067 61.1477C528.31 59.803 527.259 58.7519 525.914 57.9943C524.588 57.2178 523.045 56.8295 521.283 56.8295C519.446 56.8295 517.817 57.2557 516.397 58.108C514.996 58.9413 513.897 60.0682 513.102 61.4886C512.306 62.8902 511.899 64.4527 511.88 66.1761V73.3068C511.88 75.4659 512.278 77.3314 513.073 78.9034C513.888 80.4754 515.033 81.6875 516.511 82.5398C517.988 83.392 519.74 83.8182 521.766 83.8182C523.111 83.8182 524.342 83.6288 525.46 83.25C526.577 82.8712 527.533 82.303 528.329 81.5455C529.124 80.7879 529.73 79.8598 530.147 78.7614L541.34 79.5C540.772 82.1894 539.607 84.5379 537.846 86.5455C536.103 88.5341 533.85 90.0871 531.085 91.2045C528.338 92.303 525.166 92.8523 521.567 92.8523Z" fill="#AB8756"/>
</svg>
