<svg xmlns="http://www.w3.org/2000/svg" viewBox="0 0 145.88 94.04"><defs fill="#000000"><style>.cls-1{fill:#ab8756;}</style></defs><g id="Layer_2" data-name="Layer 2"><g id="Layer_1-2" data-name="Layer 1"><path class="cls-1" d="M64.79,41.94a.26.26,0,0,0-.32-.4,30.89,30.89,0,0,0-7.56,6c-5,5.52-11.54,9.81-15.29,11.06-1.21.4-2.46.68-3.76,1a.26.26,0,0,0-.06.48c6.59,3.49,13.46,5.77,21.06,5.87a.26.26,0,0,1,.08.51,28,28,0,0,0-8.81,5,.26.26,0,0,0,.19.46c4.58-.27,8.71,1.37,12.93,2.52a63.85,63.85,0,0,0,10,2.23,23.34,23.34,0,0,0,4.9-.18.26.26,0,0,0,.2-.36c-.72-1.57-1.47-3.14-2.13-4.74a23.27,23.27,0,0,1-2.06-10.24.25.25,0,0,0-.46-.13,25.25,25.25,0,0,0-2.78,9c-2.61-.14-7.25-.41-9.14-.53a.26.26,0,0,1-.11-.49,23.63,23.63,0,0,0,5.09-4.21.26.26,0,0,0,.07-.22c-.1-.53-.48-2.48-.64-3.64a.25.25,0,0,0-.28-.22,31.35,31.35,0,0,1-7.09,0,65.46,65.46,0,0,1-8.46-1.33.26.26,0,0,1,0-.51c4.09-1,7.26-3.46,10.33-6.07,2.9-2.46,7.52-7.13,9.6-8.9a.26.26,0,0,0-.19-.46,17.06,17.06,0,0,0-7,1.78.27.27,0,0,1-.35-.37C63.25,44.14,64,42.92,64.79,41.94Z" fill="#000000"/><path class="cls-1" d="M57.87,22.53a.26.26,0,0,0,.1-.46A7.86,7.86,0,0,0,55,20.71a8,8,0,0,0-8.41,3.34,15.37,15.37,0,0,0-2.36,5.7A59.32,59.32,0,0,1,42.16,38c-1.21,3.25-5,6.83-6.18,7.92a.26.26,0,0,0,.13.45A8,8,0,0,0,42.93,44a.26.26,0,0,1,.44.2,18.29,18.29,0,0,1-5.83,12.27.26.26,0,0,0,.23.44A29.59,29.59,0,0,0,52.89,48a70.94,70.94,0,0,1,6-6.49c2.78-2.36,7.79-4.44,9.68-5.18a.26.26,0,0,0,0-.49c-6.43-1.52-12.06-.2-16.76,4.52a.26.26,0,0,1-.43-.26c1.95-5.87,4.74-11.15,9.53-15.16a.26.26,0,0,0-.23-.45c-4.21,1.27-7.27,4.15-10,7.49a.26.26,0,0,1-.46-.18A10.37,10.37,0,0,1,57.87,22.53Z" fill="#000000"/><path class="cls-1" d="M72.82,31.61a.27.27,0,0,0-.18-.49c-.88.06-1.77.09-2.66.09-2.25,0-4.19-.4-6.44-.38-6.33.08-9.3,3.9-9.94,6.82a12,12,0,0,1,10.31-4.23c1.52.17,6.5,1.33,7.5,1.53a18.31,18.31,0,0,1,8.14-2.15.24.24,0,0,0,.07-.48,27.43,27.43,0,0,0-7.43-.14C72.18,32.11,72.42,31.89,72.82,31.61Z" fill="#000000"/><path class="cls-1" d="M106.74,28.43l5-.35a.24.24,0,0,0,0-.47c-3.35-1-9.76-3.26-9.94-3.36a12.13,12.13,0,0,0-5.72-1.44,32.32,32.32,0,0,0-7.94,1.08,34.49,34.49,0,0,1-8,1.47.25.25,0,0,0,0,.5,50.92,50.92,0,0,0,5.6,1,31.62,31.62,0,0,0,6.15.2.26.26,0,0,1,.12.49h0a.26.26,0,0,0,.06.49,21.62,21.62,0,0,1,4.09.83c1.38.52,2.72,1.14,4.1,1.66a18.88,18.88,0,0,0,5.14,1.07c.07,0,.6.08.81.07a9.28,9.28,0,0,1,1.49.05.26.26,0,0,0,.26-.37,19.84,19.84,0,0,0-1.41-2.56A.24.24,0,0,1,106.74,28.43Z" fill="#000000"/><path class="cls-1" d="M85,.49A16,16,0,0,1,90,4.3a.26.26,0,0,1-.19.43h-.39a36.17,36.17,0,0,0-18.93,5.52c-2.41,1.47-4.84,2.92-7.35,4.23C59.75,16.26,55.08,16.85,53,17a.26.26,0,0,0-.07.5c3.06,1.21,7.77,1.77,13.41-.44a.26.26,0,0,1,.24.46,22.43,22.43,0,0,1-7.45,2.58.26.26,0,0,0,0,.5,12.48,12.48,0,0,0,2.75.43,19.78,19.78,0,0,0,8.3-1.45c3.19-1.24,6.33-2.63,9.46-4A55.88,55.88,0,0,1,90,11.83a16.78,16.78,0,0,1,9.77.41A26.38,26.38,0,0,1,104.3,15a.26.26,0,0,0,.39-.3,20.67,20.67,0,0,0-4.14-6.88A21.76,21.76,0,0,0,95,3.33,28.55,28.55,0,0,0,85.11,0,.26.26,0,0,0,85,.49Z" fill="#000000"/><path class="cls-1" d="M26.56,50.28a18.27,18.27,0,0,1,1.62-1.9.26.26,0,0,1,.44.25,7.39,7.39,0,0,0-.22.93c0,.11,0,.22,0,.32a28.15,28.15,0,0,0,12-15.53.26.26,0,0,0-.45-.24,36.74,36.74,0,0,1-5.18,5.4A27.93,27.93,0,0,1,23,45.66a43.75,43.75,0,0,1-8,.47.26.26,0,0,0-.17.46,20.06,20.06,0,0,0,9.16,3.93.26.26,0,0,1,.13.44,17.46,17.46,0,0,1-9.73,4.91.25.25,0,0,0-.11.46c.49.35.94.67,1.41.94a16.21,16.21,0,0,0,5.21,2,21.49,21.49,0,0,0,1.82-2.95A53.08,53.08,0,0,1,26.56,50.28Z" fill="#000000"/><path class="cls-1" d="M27.21,58.87a21.12,21.12,0,0,0,5.28-2.4,16.47,16.47,0,0,0,5.79-6.35.26.26,0,0,0-.37-.33c-3,1.93-6.27,1.64-9.68,1-.29,2-.56,4-.78,6C27.37,57.47,27.3,58.17,27.21,58.87Z" fill="#000000"/><path class="cls-1" d="M47.37,86.26a.26.26,0,0,0,.46.17,26.53,26.53,0,0,1,6.42-5.66,31.93,31.93,0,0,1,7.57-3.5.26.26,0,0,0,0-.5A39.12,39.12,0,0,0,44.56,75.3a.26.26,0,0,1-.27-.38c.61-1.19,1.17-2.35,1.82-3.44s1.41-2.11,2.12-3.14a.25.25,0,0,0-.19-.4c-7.08-.4-15.49-5.18-18-6.65a.26.26,0,0,0-.36.34c2.18,4.09,5.66,6.89,9.58,9.3a.27.27,0,0,1,.1.35,31.17,31.17,0,0,0-3.18,9.26.26.26,0,0,0,.38.27c3.82-2.09,7.89-2.17,12.12-2a.26.26,0,0,1,.22.36A19.35,19.35,0,0,0,47.37,86.26Z" fill="#000000"/><path class="cls-1" d="M35.11,16.93a15.41,15.41,0,0,1,5.79-.18.26.26,0,0,1,.14.44c-.69.66-1.36,1.26-1.95,1.94C38,20.34,37,21.62,36,22.88a22.61,22.61,0,0,1-2.78,2.84.4.4,0,0,0,.43.66,7.31,7.31,0,0,0,.84-.42,42.2,42.2,0,0,0,6.68-5.47A16.46,16.46,0,0,1,46.65,17a.26.26,0,0,1,.29.4A30.61,30.61,0,0,1,44,20.76a.26.26,0,0,0,.29.41,12.21,12.21,0,0,0,1.44-.74c1.55-1,3-2.06,4.54-3.09a19.1,19.1,0,0,1,6.1-2.66,53.52,53.52,0,0,0,16-7.29,16.15,16.15,0,0,1,4.71-2.2.26.26,0,0,0,0-.5c-6.79-2.2-13.52.09-16.45,1.37a.26.26,0,0,0,.13.5,10.05,10.05,0,0,1,5,.56.26.26,0,0,1,0,.47,28.3,28.3,0,0,1-11.07,3.06,78.25,78.25,0,0,0-8.64,1.14,36.35,36.35,0,0,0-11.29,4.66A.26.26,0,0,0,35.11,16.93Z" fill="#000000"/><path class="cls-1" d="M66.36,50.68c-3.29,2.8-7,5.89-11.12,7.6a.25.25,0,0,0,.1.49,38.37,38.37,0,0,0,10.32-1.3.24.24,0,0,0,.19-.23A34.38,34.38,0,0,1,66.78,51,.26.26,0,0,0,66.36,50.68Z" fill="#000000"/><path class="cls-1" d="M12,68a.26.26,0,0,0,.17.46,9.61,9.61,0,0,0,4.66-1.55C18.29,66,19.64,65,21,64a.26.26,0,0,1,.41.24A21.61,21.61,0,0,1,15.76,76.9a.26.26,0,0,0,.32.4,21.39,21.39,0,0,0,9.8-11.6,32.37,32.37,0,0,0,1.33-6.83,14,14,0,0,1-6.37.36A44.68,44.68,0,0,1,12,68Z" fill="#000000"/><path class="cls-1" d="M27.92,50.68l.31.07c0-.29.08-.58.13-.87l-.52.33A.26.26,0,0,0,27.92,50.68Z" fill="#000000"/><path class="cls-1" d="M27.21,58.87a5.65,5.65,0,0,1,.56-2.12c1.12-1.89,2-3.74.46-6-.1,0-.07-.19-.18-.21s-.25,0-.05-.15.19-.4.36-.51c0-.1.22-.2.24-.31a10.81,10.81,0,0,1,.39-1c.07-.26-.52-.53-.79-.54-1.33,0-1.16,1.6-1.64,2.28-1.36,2-3.49,3.77-4.58,5.9-.51,1-.46,2.11-1.14,3C23,59.61,24.25,60.54,27.21,58.87Z" fill="#000000"/><path class="cls-1" d="M88.48,90.92A15.9,15.9,0,0,0,93.39,73.3a.32.32,0,0,0-.63.09,51.91,51.91,0,0,0,.26,6.3.32.32,0,0,1-.5.29,19,19,0,0,1-3.07-2.54,13.13,13.13,0,0,1-2-3,.32.32,0,0,0-.61.16,25.94,25.94,0,0,1-1.12,9,.33.33,0,0,0,.44.4,14.81,14.81,0,0,0,2.65-1.45c.15-.12.32-.23.48-.34,0,0,0,0,.14,0A9.84,9.84,0,0,1,88,90.48.33.33,0,0,0,88.48,90.92Z" fill="#000000"/><path class="cls-1" d="M80,82.9a.26.26,0,0,0,.19-.27,17.5,17.5,0,0,0-.74-3.87.25.25,0,0,0-.34-.16c-.75.28-1.52.53-2.3.75-3.24.9-9.29.67-12.15.5a.26.26,0,0,0-.11.5,34.61,34.61,0,0,0,10.58,3A14.56,14.56,0,0,0,80,82.9Z" fill="#000000"/><path class="cls-1" d="M113.63,21.43c1.86,1.46,3.86,2.75,5.79,4.13L120,26a.26.26,0,0,0,.41-.26,13.56,13.56,0,0,0-3.09-6.28c-.78-.88-1.58-1.74-2.36-2.61a18.17,18.17,0,0,1-4.17-7.17.26.26,0,0,0-.49,0A10.61,10.61,0,0,0,113.63,21.43Z" fill="#000000"/><path class="cls-1" d="M75.42,86.06a.26.26,0,0,0,0-.51c-3.11-.43-11.48-1.78-14.84-4.12a1.18,1.18,0,0,0-1.18-.08,19.55,19.55,0,0,0-7.44,4.5c-.26.24-.49.51-.73.77a.26.26,0,0,0,.31.41,26.06,26.06,0,0,1,4.21-1.72c.83-.2,1.68-.32,2.52-.46a5,5,0,0,1,2.56.29A25.62,25.62,0,0,0,75.42,86.06Z" fill="#000000"/><path class="cls-1" d="M83.46,85.34a19.76,19.76,0,0,1-8.09,3.47,26.18,26.18,0,0,1-7.49.35.26.26,0,0,0-.11.5,23.84,23.84,0,0,0,8.35,1.6.26.26,0,0,1,.21.41l-1.48,2a.26.26,0,0,0,.26.41c2.89-.57,7.31-4.75,8.74-8.4A.26.26,0,0,0,83.46,85.34Z" fill="#000000"/><path class="cls-1" d="M92.71,88.94a10.61,10.61,0,0,0,3.72-3.52.19.19,0,0,1,.23-.08,9,9,0,0,0,4.31.56.2.2,0,0,0,.06-.38,13.74,13.74,0,0,1-5.22-5,.21.21,0,0,0-.38.11,12.72,12.72,0,0,1-3,8A.2.2,0,0,0,92.71,88.94Z" fill="#000000"/><path class="cls-1" d="M144,54.41c-1,.33-2.93-.7-3.95-1.34a.25.25,0,0,0-.36.3,6.81,6.81,0,0,1-.19,5.62c-1.61,3.09,3.83,1.94,4.1.51a2.6,2.6,0,0,1,1.16-1.63,2.72,2.72,0,0,0,1-2.88.26.26,0,0,0-.09-.14A2.08,2.08,0,0,0,144,54.41Z" fill="#000000"/><path class="cls-1" d="M110.66,71.45c0-.19,0-.38-.07-.56,0,.18,0,.32,0,.41A.86.86,0,0,1,110.66,71.45Z" fill="#000000"/><path class="cls-1" d="M88.24,15.56C85.43,16.62,82.73,18,80,19.25a43.14,43.14,0,0,1-9.22,3.6c-1,.22-1.93.36-3,.5a.26.26,0,0,0,0,.51c.75.12,1.47.23,2.2.31a31.36,31.36,0,0,0,11.62-.73c2.87-.76,5.71-1.63,8.58-2.38a15.92,15.92,0,0,1,7.63-.46A16.53,16.53,0,0,1,102,22.09a62.66,62.66,0,0,0,10.54,4.3,20.46,20.46,0,0,1,6.31,3.22.26.26,0,0,1-.18.46l-9.49-.74a.26.26,0,0,0-.16.47,30.63,30.63,0,0,1,4.43,3.81.26.26,0,0,1-.25.43c-.76-.18-1.52-.37-2.29-.48s-1.4-.23-2.1-.32c-1.45-.19-2.91-.06-4.37-.25a19,19,0,0,1-4.26-1.11c-1.51-.57-3-1.24-4.49-1.81a31.74,31.74,0,0,0-5-1.3s-6.14-1-12.5-1.91c-5.41-.74-12.51-1.47-16.6.49a.26.26,0,0,0,.07.48c2.72.5,12.44,2.22,16.05,1.78a.26.26,0,0,1,.25.39l-.45.71a.26.26,0,0,0,.21.4,25.64,25.64,0,0,1,7.69,1.15A6.68,6.68,0,0,1,89,34.5a.26.26,0,0,1-.32.38,15.29,15.29,0,0,0-10.87-.41A26.57,26.57,0,0,0,72,37.16a17,17,0,0,0-3.44,3c-.62.66-1.16,1.3-1.58,1.81a.26.26,0,0,0,.31.4,18.11,18.11,0,0,1,7.54-1.65,11.19,11.19,0,0,1,5.58,1,.26.26,0,0,1-.11.48,13.39,13.39,0,0,0-2,.34,15.72,15.72,0,0,0-7.44,4.54,13.71,13.71,0,0,0-3,8.26A26.45,26.45,0,0,0,68,60.23,44.5,44.5,0,0,0,69.38,67a.26.26,0,0,0,.5,0c.88-3,4.05-12.59,7.94-12.38a.26.26,0,0,1,.24.33c-.48,1.83-.94,3.35-1.26,4.89a14.66,14.66,0,0,0-.15,4.75c.63,4.93,3.41,9.23,5.16,13.8A43.68,43.68,0,0,1,83,83.75a.26.26,0,0,0,.48.08,18.9,18.9,0,0,0,1.77-12.76,8.41,8.41,0,0,1,1.13-5.4.26.26,0,0,1,.48.14,20.92,20.92,0,0,0,.39,4.39,14.24,14.24,0,0,0,1.22,3.61,14.07,14.07,0,0,0,2.72,3.71.26.26,0,0,0,.44-.22c-.15-.94-.38-1.69-.44-2.37-.31-3.6.46-8.8,4.17-10.48a6.14,6.14,0,0,1,6.1.66,8.75,8.75,0,0,1,3.21,4,4,4,0,0,1-2.12,5.25,7.82,7.82,0,0,1-4.8.1.31.31,0,0,0-.33.49,10.8,10.8,0,0,0,4.06,3.36,11.53,11.53,0,0,0,4.22,1h0l6.41-.07a1.1,1.1,0,0,1,1.1,1.23,15.46,15.46,0,0,1-1.14,4.19,9.47,9.47,0,0,1-.85,1.64,12.54,12.54,0,0,1-2.92,3.35c-.54.49-1.06.93-1.53,1.3a.44.44,0,0,0,.38.77,23.6,23.6,0,0,0,10.31-5.3c4-3.33,7.53-13.67,7.57-13.79a.31.31,0,0,0-.48-.36,7.36,7.36,0,0,1-6.82,1.58,10.87,10.87,0,0,1-1.59-3,8,8,0,0,1,4.76-9.51,15.17,15.17,0,0,1,9.67-.86,3.81,3.81,0,0,1,1.18.51c.91,2.11-1.24,5-2.28,6.23a.31.31,0,0,0,.26.51c1.78-.13,6.32-.83,8.91-4.49h0a.62.62,0,0,0-.1-.86c-.71-.54-.64-1.55.14-3.7a10.15,10.15,0,0,0,0-6.32.62.62,0,0,1,.92-.71c1.48.92,3.57,2,4.65,1.7a1.45,1.45,0,0,1,.35-.07.62.62,0,0,0,.47-1,62.93,62.93,0,0,0-4.49-5.91c-.94-1.07-8.68-4.61-9.22-5-1.1-.73-.36-2.19-.21-3.2a3.78,3.78,0,0,0-.18-2.28c-.68-1.27-2.6-1.58-3.82-2-1.06-.39-2.14-.74-3.18-1.17a3.65,3.65,0,0,1-.43-.23.31.31,0,0,1-.09-.11,14.81,14.81,0,0,0-7-7.37,39.35,39.35,0,0,1-4-2.32,10.5,10.5,0,0,1-4.14-6.5c-.23-1-.4-1.93-.59-2.95a.26.26,0,0,0-.48-.09,8.79,8.79,0,0,0-1.36,5.79.26.26,0,0,1-.41.24c-.85-.63-1.67-1.24-2.52-1.81A15.51,15.51,0,0,0,88.24,15.56Zm22.35,55.33c0,.18,0,.37.07.56h0a.86.86,0,0,0,0-.15c0-.09,0-.23,0-.41-1.66-12.25-12.35-12.68-12.35-12.68,11.6-8.52,31.13-3.78,31.13-3.78C110.17,55,110.32,68,110.59,70.89Zm18-20.67.68.37.92.5,1,.53a.22.22,0,0,1,.1.09.19.19,0,0,1,0,.1.3.3,0,0,1,0,.18l0,0a.24.24,0,0,1-.27.07l-1.55-.47-.32-.1-.8-.22-.82-.21-.91-.23c-.87-.2-1.71-.37-2.53-.51l-.5-.08-1-.14c-.65-.08-1.29-.15-1.94-.19-.81-.06-1.63-.09-2.47-.1h0c-1.17,0-2.37,0-3.64.13a38.19,38.19,0,0,0-4.18.54l-.58.12c-.78.16-1.55.34-2.31.55-.38.1-.76.21-1.13.33-.57.17-1.13.35-1.69.55l-1.11.41c-.55.21-1.1.44-1.64.67l-1.08.49q-2.16,1-4.23,2.22A9.42,9.42,0,0,0,95,57c-.83.75-1.6,1.6-2.43,2.39a.3.3,0,0,1-.18.08.25.25,0,0,1-.24-.17,1.9,1.9,0,0,1-.09-.29c-.38-2.68-1.85-3.77-4-2.92a5.82,5.82,0,0,0-.81.38c-.24.13-.56.35-.92.6l-.9.67-.23.18c-.45.35-.88.68-1.18.93l-.07,0h-.07a.27.27,0,0,1-.15,0,.27.27,0,0,1-.13-.25,15.76,15.76,0,0,1,.75-3.51,11.71,11.71,0,0,1,1-1.74A13.62,13.62,0,0,1,87,51.5a19,19,0,0,1,1.53-1.32c.4-.31.81-.6,1.22-.88A22.33,22.33,0,0,1,96,46.57l1.36-.39,1.32-.35.27-.08.83-.22.83-.21.54-.14.52-.13c.85-.22,1.61-.42,2.16-.55l.08,0a.24.24,0,0,0,.11-.2.25.25,0,0,0-.17-.26l-1.3-.43-3.9-1.3-4-1.33-1.35-.45a.25.25,0,0,1-.15-.11l0-.09v-.08s0-.06,0-.08a.05.05,0,0,1,0,0,.23.23,0,0,1,.2-.1c.54,0,1.25-.05,2.08-.05h1.06L98,40l1.61.09,1,.07.71.06,1.47.15.75.1.77.1.77.12,1.17.19,1.19.23.8.17,1.2.28.41.1L111,42l.8.24.79.26.79.27,1.55.61.89.39,1.45.67q.25.11.51.24l1.06.5,1.08.54,1.67.84,1.13.57,1.12.59c.37.19.75.38,1.11.58l1.09.57Zm-9.2-13.36a.21.21,0,0,1,.1-.06h.08a.22.22,0,0,1,.13,0l4.1,2.48,2.55,1.55a.25.25,0,0,1,.12.24c0,.64,0,1.12-.06,1.62,0,.3,0,.61,0,1,0,0,0,.05,0,.07a.26.26,0,0,1-.36.15,13.91,13.91,0,0,1-3.15-2.09l-.5-.47a12.9,12.9,0,0,1-.89-1l-.2-.24-.37-.47-.17-.22-.31-.45-.15-.22c-.09-.14-.18-.28-.26-.42s-.16-.26-.23-.39-.14-.24-.2-.36l-.17-.32-.07-.15A.26.26,0,0,1,119.44,36.86Z" fill="#000000"/><path class="cls-1" d="M118.88,45.16l1.08.54Z" fill="#000000"/><path class="cls-1" d="M121.63,46.54l1.13.57Z" fill="#000000"/><path class="cls-1" d="M93.35,40c.54,0,1.25-.05,2.08-.05-.83,0-1.54,0-2.08.05a.23.23,0,0,0-.2.1A.23.23,0,0,1,93.35,40Z" fill="#000000"/><path class="cls-1" d="M127.51,51.09l-.91-.23Z" fill="#000000"/><path class="cls-1" d="M98,40l1.61.09Z" fill="#000000"/><path class="cls-1" d="M128.64,50.22l.68.37Z" fill="#000000"/><path class="cls-1" d="M95.68,39.94h0Z" fill="#000000"/><path class="cls-1" d="M129.13,51.52l-.8-.22Z" fill="#000000"/><path class="cls-1" d="M96.49,40,98,40Z" fill="#000000"/><path class="cls-1" d="M93.1,40.21s0-.06,0-.08S93.11,40.18,93.1,40.21Z" fill="#000000"/><path class="cls-1" d="M98.91,45.75l.83-.22Z" fill="#000000"/><path class="cls-1" d="M97.32,46.18l1.32-.35Z" fill="#000000"/><path class="cls-1" d="M100.57,45.32l.54-.14Z" fill="#000000"/><path class="cls-1" d="M99.74,45.53l.83-.21Z" fill="#000000"/><path class="cls-1" d="M101.11,45.18l.52-.13Z" fill="#000000"/><path class="cls-1" d="M117.82,44.66l1.06.5Z" fill="#000000"/><path class="cls-1" d="M111,42l.8.24Z" fill="#000000"/><path class="cls-1" d="M109.84,41.65,111,42Z" fill="#000000"/><path class="cls-1" d="M100.6,40.15l.71.06Z" fill="#000000"/><path class="cls-1" d="M112.63,42.48l.79.27Z" fill="#000000"/><path class="cls-1" d="M115.86,43.75l1.45.67Z" fill="#000000"/><path class="cls-1" d="M111.84,42.22l.79.26Z" fill="#000000"/><path class="cls-1" d="M101.31,40.21l1.47.15Z" fill="#000000"/><path class="cls-1" d="M108.23,41.27l1.2.28Z" fill="#000000"/><path class="cls-1" d="M103.53,40.46l.77.1Z" fill="#000000"/><path class="cls-1" d="M106.24,40.87l1.19.23Z" fill="#000000"/><path class="cls-1" d="M105.07,40.68l1.17.19Z" fill="#000000"/><path class="cls-1" d="M131,52.09l-1.55-.47,1.55.47a.24.24,0,0,0,.27-.07A.24.24,0,0,1,131,52.09Z" fill="#000000"/><path class="cls-1" d="M131.31,51.71a.22.22,0,0,0-.1-.09l-1-.53,1,.53A.22.22,0,0,1,131.31,51.71Z" fill="#000000"/><path class="cls-1" d="M131.3,52a.3.3,0,0,0,0-.18A.3.3,0,0,1,131.3,52Z" fill="#000000"/><path class="cls-1" d="M119.54,36.8h0Z" fill="#000000"/><path class="cls-1" d="M126.52,41.1a.25.25,0,0,0-.12-.24l-2.55-1.55,2.55,1.55A.25.25,0,0,1,126.52,41.1Z" fill="#000000"/><path class="cls-1" d="M119.44,36.86a.21.21,0,0,1,.1-.06A.21.21,0,0,0,119.44,36.86Z" fill="#000000"/><path class="cls-1" d="M110.66,71.45c0-.19,0-.38-.07-.56,0,.18,0,.37.07.56Z" fill="#000000"/><path class="cls-1" d="M111.22,86.31a16.62,16.62,0,0,1-2.92,3.35A12.54,12.54,0,0,0,111.22,86.31Z" fill="#000000"/><path class="cls-1" d="M.47,50.16c3.11-1.9,10.88-6.15,18.92-6.79C33.45,42.26,42.36,30,42.5,22.92a.31.31,0,0,0-.54-.21c-2.31,2.65-12.67,12.69-36.52,12a.31.31,0,0,0-.18.56,19.91,19.91,0,0,0,9,3.36.31.31,0,0,1,.07.6A31.26,31.26,0,0,0,.07,49.7.31.31,0,0,0,.47,50.16Z" fill="#000000"/><path class="cls-1" d="M12,32.73c12.8-1.17,21-8.3,22.51-10.32a47.73,47.73,0,0,1,3.24-3.87.27.27,0,0,0-.23-.45c-10.48,1.12-13.37,4.55-16.33,8.2-2.17,2.68-6.84,4.88-9.32,5.92A.27.27,0,0,0,12,32.73Z" fill="#000000"/></g></g></svg>