<svg width="3386" height="561" viewBox="0 0 3386 561" fill="none" xmlns="http://www.w3.org/2000/svg">
<path d="M0.260802 305C0.260802 305 -14.0697 97.5567 169.724 22.139C242.479 -7.71723 324.147 -7.18357 396.945 22.5752C475.67 54.7567 567.201 126.346 565.988 285.233L455.671 276.054C455.671 276.054 451.429 170.149 500.928 113.669C500.928 113.669 418.191 128.497 334.745 204.745C334.745 204.745 276.048 132.025 274.636 49.42C274.636 49.42 224.428 105.198 201.091 197.689C201.091 197.689 140.274 175.096 95.7252 102.372C95.7252 102.372 84.411 221.691 109.161 294.415L0.260802 305Z" fill="#BE9553"/>
<path d="M295.929 407C295.929 407 347.745 278.07 259.219 179L229 215.536C229 215.536 316.303 295.984 295.929 407Z" fill="#BE9553"/>
<path d="M145 223V297.68C145 297.68 244.115 309.658 283 409C282.996 408.996 282.417 273.022 145 223Z" fill="#BE9553"/>
<path d="M344.194 237.323L411.006 209C411.006 209 429.995 332.202 302 420C301.996 420 377.25 330.787 344.194 237.323Z" fill="#BE9553"/>
<path d="M307 425.957C307 425.957 440.515 444.119 515 328.862L443.323 310C443.327 310 418.029 407.095 307 425.957Z" fill="#BE9553"/>
<path d="M552 365.059C552 365.059 490.956 456.094 391.991 457.929C353.093 458.651 315.515 444.017 286.823 417.763C248.67 382.851 159.137 317.318 53.3382 351.671C53.3382 351.671 85.2546 453.841 224.907 476.566C224.907 476.566 110.117 498.763 35 403.107C35 403.107 40.8772 417.75 54.6711 438.26C119.769 535.074 238.561 580.371 352.103 553.229C423.831 536.084 513.191 489.209 552 365.059Z" fill="#BE9553"/>
<path d="M688.619 225.485L688.625 223.742L875.764 223.661L875.768 225.404L884.536 272.899L882.735 273.658C877.029 265.564 860.539 244.544 852.779 244.554L806.633 244.577C798.85 248.443 793.766 251.662 793.773 260.114L793.829 382.019C793.824 382.48 793.839 382.93 793.862 383.369C794.615 397.269 806.895 404.166 807.019 404.229L806.54 406.108L758 406.13L757.557 404.231C757.683 404.164 770.695 397.562 770.686 382.03L770.636 260.044C770.636 259.684 770.627 259.334 770.608 258.984C770.228 251.964 766.138 248.731 757.703 244.62L711.617 244.64C703.876 244.639 687.348 265.672 681.637 273.773L679.834 273.019L688.619 225.485Z" fill="#BE9553"/>
<path d="M909.813 404.589C909.943 404.504 923.067 395.807 923.084 382.342L923.221 248.154C923.228 245.308 922.799 242.575 921.958 240.03C918.705 230.184 910.194 225.971 910.115 225.924L910.55 224.021L959.107 224.069L959.433 226.015C958.905 226.2 946.402 230.848 946.378 248.18L946.319 303.397L1076.17 303.526L1076.22 248.309C1076.23 245.463 1075.8 242.73 1074.96 240.185C1071.72 230.367 1063.2 226.126 1063.11 226.082L1063.54 224.179L1112.1 224.227L1112.57 226.117C1112.43 226.183 1099.39 233.251 1099.38 248.335L1099.24 382.514C1099.24 384.841 1099.61 387.173 1100.36 389.442C1103.52 399.004 1112.36 404.719 1112.45 404.773L1115.35 406.618L1059.91 406.567L1062.82 404.722C1062.95 404.637 1076.07 396.174 1076.07 382.481L1076.13 324.359L946.286 324.239L946.225 382.352C946.226 384.68 946.596 387.011 947.346 389.281C950.505 398.842 959.344 404.558 959.439 404.621L962.334 406.466L906.982 406.409L909.813 404.589Z" fill="#BE9553"/>
<path d="M1149.54 404.282C1149.67 404.213 1162.75 396.818 1162.79 381.727L1163.17 247.904C1163.18 244.397 1162.29 240.894 1160.54 237.5C1156.72 230.108 1150.05 225.638 1149.99 225.594L1147.2 223.748L1303.76 224.19L1315.5 273.421L1313.71 274.231C1307.94 266.105 1291.25 245.014 1283.49 244.991L1204.94 244.772C1194.71 244.746 1186.35 252.459 1186.32 261.986L1186.2 303.153L1249.62 303.335C1259.36 303.359 1269.29 291.509 1269.39 291.392L1271.17 289.244L1271.02 339.07L1269.23 336.643C1269.14 336.518 1259.93 324.224 1249.53 324.196L1186.13 324.036L1186.01 368.325C1186 370.928 1186.61 373.429 1187.81 375.757C1190.84 381.629 1197.32 385.43 1204.32 385.45L1289.89 385.693C1296.34 385.715 1310.13 367.602 1319.98 352.082C1320.19 351.749 1320.41 351.41 1320.94 351.394L1322.22 351.364L1310.02 406.613L1146.16 406.152L1149.54 404.282Z" fill="#BE9553"/>
<path d="M1509.66 404.582C1509.79 404.521 1522.83 397.97 1522.9 382.437L1523.41 260.445C1523.43 255.895 1521.98 252.633 1518.72 249.88C1516.5 248.011 1513.49 246.414 1510.55 244.954L1464.46 244.756C1456.72 244.726 1440.1 265.675 1434.35 273.75L1432.55 272.981L1441.57 225.512L1441.57 223.765L1628.71 224.556L1628.71 226.303L1637.25 273.84L1635.44 274.59C1635.33 274.429 1623.94 258.167 1614.19 249.941C1609.7 246.156 1607.05 245.352 1605.62 245.346L1559.48 245.153C1551.68 248.974 1546.58 252.168 1546.54 260.63L1546.02 382.529C1545.98 392.645 1552.05 399.276 1555.66 402.325C1557.6 403.963 1559.1 404.801 1559.11 404.8L1558.62 406.679L1510.08 406.477L1509.66 404.582Z" fill="#BE9553"/>
<path d="M1661.39 404.81C1661.53 404.727 1674.63 396.018 1674.62 382.546L1674.58 248.356C1674.57 232.698 1661.97 226.405 1661.43 226.139L1661.87 224.24L1710.42 224.223L1710.75 226.168C1710.22 226.353 1697.72 231.023 1697.73 248.35L1697.74 303.56L1827.58 303.517L1827.57 248.307C1827.56 232.609 1814.56 226.156 1814.42 226.09L1814.85 224.192L1863.41 224.174L1863.88 226.058C1863.75 226.132 1850.72 233.214 1850.72 248.292L1850.77 382.483C1850.77 396.186 1863.88 404.647 1864.01 404.731L1866.92 406.574L1811.48 406.59L1814.39 404.743C1814.52 404.659 1827.61 396.179 1827.62 382.489L1827.6 324.357L1697.75 324.409L1697.78 382.531C1697.78 396.234 1710.89 404.695 1711.02 404.779L1713.93 406.623L1658.56 406.64L1661.39 404.81Z" fill="#BE9553"/>
<path d="M1891.11 404.349C1891.28 404.278 1907.89 397.52 1917.83 378.155L1975.23 243.289L1983.45 223.852L2034.25 223.831L2042.48 243.263L2099.95 377.934C2109.87 397.396 2126.61 404.169 2126.77 404.229L2126.41 406.161L2112.15 406.166L2110.51 406.189L2087.13 406.204L2087.12 406.183L2055.71 406.203L2058.42 404.37C2064.44 400.319 2079.37 388.263 2076.36 381.172L2059.65 342.023L1958.15 342.071L1941.35 381.535C1938.79 388.615 1953.46 400.455 1959.33 404.41L1962.03 406.233L1930.74 406.249L1930.15 406.274L1905.62 406.282L1905.63 406.262L1891.48 406.264L1891.11 404.349ZM1967.03 321.21L2050.75 321.17L2018.11 244.682L1999.6 244.695L1967.03 321.21Z" fill="#BE9553"/>
<path d="M2153.7 407.361L2157.06 405.492C2157.2 405.422 2170.25 397.987 2170.28 383.284L2170.45 249.089C2170.47 234.396 2157.42 226.898 2157.29 226.827L2153.95 224.954L2206.34 225.016L2206.73 226.942C2206.2 227.163 2193.64 232.615 2193.61 249.124L2193.45 383.318C2193.42 398.021 2206.47 405.479 2206.6 405.56L2209.96 407.432L2153.7 407.361Z" fill="#BE9553"/>
<path d="M2475.8 407.1L2478.7 405.252C2478.84 405.168 2491.92 396.675 2491.91 382.991L2491.86 324.859L2362.02 324.99L2362.07 383.109C2362.09 396.815 2375.19 405.263 2375.33 405.349L2378.24 407.187L2322.88 407.244L2325.69 405.407C2325.83 405.323 2338.93 396.606 2338.92 383.137L2338.8 248.943C2338.78 233.291 2326.18 227 2325.64 226.741L2326.08 224.842L2374.64 224.793L2374.97 226.735C2374.97 226.735 2374.41 226.941 2373.54 227.401C2370.05 229.255 2361.95 235.056 2361.96 248.924L2362.01 304.135L2491.85 304.012L2491.8 248.802C2491.78 233.149 2479.19 226.854 2478.64 226.599L2479.09 224.7L2527.64 224.651L2528.11 226.532C2527.97 226.602 2514.95 233.694 2514.96 248.782L2515.08 382.976C2515.1 396.682 2528.2 405.13 2528.34 405.216L2531.25 407.054L2475.8 407.1Z" fill="#BE9553"/>
<path d="M2576.79 254.749C2594.17 237.345 2617.45 226.352 2642.33 223.802C2669.17 221.045 2695.7 228.139 2717.03 243.748C2738.56 259.506 2751.81 281.858 2754.36 306.684C2757.05 332.951 2747.09 359.536 2727.02 379.621C2709.64 397.024 2686.36 408.017 2661.47 410.568C2634.63 413.324 2608.11 406.231 2586.78 390.621C2565.25 374.863 2552 352.511 2549.45 327.686C2546.76 301.418 2556.72 274.833 2576.79 254.749ZM2709.97 366.244C2725.64 350.56 2733.42 329.71 2731.31 309.057C2727.26 269.666 2687.5 240.114 2644.45 244.519C2625.2 246.494 2607.3 254.896 2594.03 268.175C2578.24 283.98 2570.4 304.808 2572.5 325.327C2574.42 344.008 2584.6 361.673 2600.45 373.778C2616.91 386.364 2637.83 392.081 2659.36 389.879C2678.75 387.896 2696.72 379.501 2709.97 366.244Z" fill="#BE9553"/>
<path d="M2953.88 381.338C2939.43 401.208 2914.66 410.916 2878.16 411.01C2850.66 411.083 2830.02 405.679 2815.06 394.498C2797.12 381.094 2788 359.197 2787.92 329.393L2787.73 250.213C2787.69 234.592 2775.07 228.273 2774.53 228.015L2774.96 226.114L2827.19 225.98L2824.01 227.849C2823.97 227.877 2819.43 230.584 2815.72 235.679C2812.49 240.127 2810.85 244.995 2810.86 250.148L2811.07 330.2C2811.18 373.485 2829.97 390.305 2878.08 390.183C2907.06 390.112 2925.13 383.772 2934.98 370.234C2941.73 360.958 2944.98 347.758 2944.93 329.855L2944.67 249.806C2944.63 233.777 2932.04 227.861 2931.5 227.617L2931.91 225.705L2980.49 225.582L2980.9 227.492C2980.86 227.513 2976.21 229.702 2972.5 234.796C2969.4 239.066 2967.83 244.096 2967.85 249.748L2968.1 328.925C2968.18 350.655 2963.38 368.277 2953.88 381.338Z" fill="#BE9553"/>
<path d="M3182.72 366.654C3178.3 385.708 3160.37 408.845 3100.01 410.839C3069.62 411.848 3046.12 405.3 3030.14 391.38C3018.04 380.834 3010.81 365.884 3010.3 350.356L3010.26 349.248L3036.29 351.159L3036.31 352.058C3037.2 378.893 3058.4 391.807 3099.32 390.456C3135.5 389.26 3155.91 379.806 3159.95 362.359C3160.53 359.865 3160.78 357.161 3160.69 354.337C3160.12 337.092 3127.73 330.895 3093.43 324.337C3052.86 316.569 3006.88 307.773 3005.88 277.822C3005.77 274.554 3006.09 271.301 3006.82 268.155C3009.64 255.978 3018.47 245.45 3032.34 237.703C3047.4 229.288 3068.26 224.405 3092.67 223.6C3153.97 221.566 3184.58 245.327 3186.27 296.214L3186.31 297.322L3160.44 295.551L3160.41 294.652C3159.73 274.086 3153.04 260.308 3139.95 252.529C3129.5 246.319 3114.7 243.748 3093.37 244.457C3054.31 245.755 3033.49 254.231 3029.75 270.373C3029.27 272.458 3029.06 274.71 3029.14 277.059C3029.61 291.314 3059.05 296.662 3090.22 302.32C3133.62 310.2 3182.8 319.133 3183.94 353.571C3184.09 358.092 3183.68 362.504 3182.72 366.654Z" fill="#BE9553"/>
<path d="M3368.99 407.564L3205.14 407.379L3208.51 405.504C3208.63 405.439 3221.16 398.324 3221.7 383.885C3221.71 383.565 3221.71 383.245 3221.72 382.925L3221.86 249.106C3221.88 235.697 3208.78 226.908 3208.64 226.823L3205.85 224.987L3362.4 225.158L3374.24 274.367L3372.46 275.181C3366.67 267.067 3349.95 246.005 3342.18 245.993L3263.63 245.902C3253.57 245.894 3245.42 253.203 3245.06 262.547C3245.06 262.747 3245.05 262.946 3245.05 263.146L3245.01 304.314L3308.43 304.386C3318.15 304.392 3328.07 292.526 3328.17 292.409L3329.94 290.264L3329.89 340.088L3328.09 337.658C3328 337.535 3318.77 325.26 3308.37 325.239L3244.98 325.188L3244.93 369.477C3244.93 374.03 3246.82 378.304 3250.27 381.536C3253.74 384.779 3258.35 386.573 3263.28 386.578L3348.84 386.672C3355.29 386.674 3369.05 368.549 3378.88 353.017C3379.08 352.694 3379.32 352.323 3379.87 352.323L3381.12 352.32L3368.99 407.564Z" fill="#BE9553"/>
</svg>
