<svg xmlns="http://www.w3.org/2000/svg" viewBox="0 0 622.23 143.59"><defs fill="#000000"><style>.cls-1{fill:#ac8856;}.cls-2{fill:#adaa87;}</style></defs><g id="Layer_2" data-name="Layer 2"><g id="Layer_1-2" data-name="Layer 1"><path class="cls-1" d="M55.41,16.75a30.69,30.69,0,0,0-.11-3.59c-.28-1.78-1.49-3.06-2.36-4.54C51.86,6.77,50.17,5.5,48.68,4a14.94,14.94,0,0,1-1.92-2.29A1,1,0,0,1,47.39.09a2.15,2.15,0,0,1,1,0A10.75,10.75,0,0,1,53.7,2.51a19.39,19.39,0,0,1,5.68,7.23,28.53,28.53,0,0,1,2.06,11.33c0,.7.15,1,.91,1.07,10.44,1.35,19.81,5.45,28.44,11.3a34.13,34.13,0,0,1,12.82,15.81,17.39,17.39,0,0,1,1.3,9.6,10.39,10.39,0,0,1-2.78,6c-.35.33-.3.51.11.72a27.14,27.14,0,0,1,9.16,8,26.38,26.38,0,0,1,3.69,7.32A52.39,52.39,0,0,1,118,94.77a17.79,17.79,0,0,1-6.17,15.09,15.93,15.93,0,0,1-10.87,4.87c-6.27.14-12.54.14-18.8-.13a43.18,43.18,0,0,0-8.88.42,23.82,23.82,0,0,0-4.67,1.3c-1.6.62-2,2-2.31,3.43-1.48,6.7.48,12.26,5.64,16.71a10.32,10.32,0,0,1,3.21,4.78,3.39,3.39,0,0,1,.11.43c.08.44,0,.56-.47.35a38.8,38.8,0,0,0-3.91-1.7,27.72,27.72,0,0,0-13.92-1.42,52.08,52.08,0,0,0-13.76,4.43c-.26.11-.56.42-.8.16s0-.6.12-.9A72.26,72.26,0,0,1,49,131.77c.75-1.09,1.44-2.22,2.18-3.31a6.37,6.37,0,0,0,.94-5.22,6.09,6.09,0,0,1-.1-.73,1.89,1.89,0,0,0,.12-.88q0-7.86,0-15.71c0-.32,0-.64-.06-1,1.47-6.26,1.7-12.65,2-19a2.16,2.16,0,0,0,.45-1.41,1.3,1.3,0,0,0,.13-.8c.07-2.87.11-5.74.19-8.6.4-13.49.86-27,.6-40.49A22.26,22.26,0,0,0,55.31,31a3.15,3.15,0,0,0,.12-.58Q55.43,23.56,55.41,16.75Zm8.1,72.48c0,3.64,0,7.29,0,10.93a1,1,0,0,0,.8,1.14,57.38,57.38,0,0,0,23.77,3.3,28.44,28.44,0,0,0,8.73-1.9c2.58-1,4.71-2.67,5.67-5.33a19.86,19.86,0,0,0,1-11.76A13.72,13.72,0,0,0,95.79,76a22.47,22.47,0,0,0-10.11-2c-4.44,0-8.88.18-13.31.6a19.06,19.06,0,0,0-8.15,2.54,1.28,1.28,0,0,0-.72,1.25C63.53,82,63.51,85.6,63.51,89.23Zm0-37.41v13.7c0,.46-.05.89.65.91,2.42.09,4.84.32,7.26.34a24.7,24.7,0,0,0,8.89-1.39C86.71,63,91.58,55.24,89.68,47.65c-1.5-6-4.74-10.33-11.06-11.91a20.6,20.6,0,0,0-14.36,1.33,1.22,1.22,0,0,0-.79,1.26C63.5,42.83,63.49,47.32,63.49,51.82Z" fill="#000000"/><path class="cls-2" d="M52.08,105c0,.33.06.65.06,1q0,7.86,0,15.71a1.89,1.89,0,0,1-.12.88c-.57-1-1-2-1.56-3A5.59,5.59,0,0,0,43.78,117a42.36,42.36,0,0,1-15.2,1.37,64,64,0,0,1-11.36-1.89A20.78,20.78,0,0,1,2.7,103.56,37.42,37.42,0,0,1,.07,87.43a36.31,36.31,0,0,1,1.7-10.54,13.34,13.34,0,0,1,3.25-5A3.67,3.67,0,0,0,6.29,69C6,65.22,7.5,62,8.81,58.62c2.32-6,6.61-10.16,11.9-13.51a78.63,78.63,0,0,1,16.16-7.72,25.68,25.68,0,0,0,9.85-6.77,38.33,38.33,0,0,0,8-11.94,7.36,7.36,0,0,1,.72-1.93q0,6.81,0,13.63a3.15,3.15,0,0,1-.12.58A22.2,22.2,0,0,0,53,33.38,62.25,62.25,0,0,1,41.49,43.82a72.23,72.23,0,0,1-12.14,6.42c-4.71,2.07-7.78,5.8-7,11.91a3.54,3.54,0,0,0,2.33,3.14c.49.2,1,.4,1.46.56,3.12,1,6.35,1.52,9.51,2.36a15.92,15.92,0,0,1,8.07,4.73c1.35,1.53,2.62,3.14,3.89,4.74a34.64,34.64,0,0,0,5.39,5.89,3.35,3.35,0,0,0,1.51.93,2.16,2.16,0,0,1-.45,1.41,13.08,13.08,0,0,1-2.48-1.38c-2.35-1.59-4.45-3.54-6.85-5.08a16.71,16.71,0,0,0-5.87-2.71c-1.67-.3-3.36-.44-5-.6a47.89,47.89,0,0,0-10.77-.09,22.17,22.17,0,0,0-7.39,2A4.73,4.73,0,0,0,13,81,26.55,26.55,0,0,0,12.32,84a31.87,31.87,0,0,0,0,10.36A11.77,11.77,0,0,0,14,99.29a18.25,18.25,0,0,0,15.47,8.37c4.39.08,8.78-.37,13.16-.62a24.46,24.46,0,0,0,5.25-.76C49.28,105.87,50.68,105.4,52.08,105Z" fill="#000000"/><polygon class="cls-1" points="200.26 49.81 200.26 109.6 195.12 109.6 195.12 64.5 178.43 85.45 175.14 89.57 171.86 85.45 155.59 65.04 155.59 109.51 150.44 109.51 150.44 50.33 155.59 56.79 175.14 81.33 195.12 56.26 200.26 49.81" fill="#000000"/><polygon class="cls-1" points="270.6 63.79 270.6 112.27 265.46 106.17 240.28 76.3 240.28 109.6 235.14 109.6 235.14 62.23 240.28 68.32 265.46 98.19 265.46 63.79 270.6 63.79" fill="#000000"/><rect class="cls-1" x="282.07" y="63.79" width="5.14" height="45.8" fill="#000000"/><rect class="cls-1" x="216.66" y="63.79" width="5.14" height="45.8" fill="#000000"/><path class="cls-1" d="M296.24,68.79a17.9,17.9,0,0,1,0,35.8h-9.17V68.79h9.17m0-5H282.07v45.8h14.17a22.9,22.9,0,0,0,22.9-22.9h0a22.9,22.9,0,0,0-22.9-22.9Z" fill="#000000"/><polygon class="cls-1" points="386.05 96.07 369.17 76.05 365.73 71.97 365.73 103.71 369.17 103.71 369.17 81.4 386.05 101.42 389.49 105.5 389.49 73.02 386.05 73.02 386.05 96.07" fill="#000000"/><path class="cls-1" d="M406.67,73h-9.49v30.69h9.49A15.35,15.35,0,0,0,422,88.36h0A15.34,15.34,0,0,0,406.67,73Zm0,27.34h-6.05v-24h6.05a12,12,0,1,1,0,24Z" fill="#000000"/><polygon class="cls-1" points="617.78 62.87 605.02 84.98 592.25 62.87 587.8 65.44 602.05 90.12 602.42 90.77 602.42 109.6 607.57 109.6 607.57 90.83 607.98 90.12 622.23 65.44 617.78 62.87" fill="#000000"/><path class="cls-1" d="M512.06,63.31A23.14,23.14,0,1,0,535.2,86.45,23.14,23.14,0,0,0,512.06,63.31Zm0,41.28A18.14,18.14,0,1,1,530.2,86.45,18.16,18.16,0,0,1,512.06,104.59Z" fill="#000000"/><path class="cls-1" d="M467.33,79.27a14.76,14.76,0,0,0-8.54-26.81H436.92v57.13H459a16.29,16.29,0,0,0,8.32-30.32Zm-8.54-21.81A9.77,9.77,0,0,1,459.25,77H442.06V57.46Zm.22,47.13H442.06V82h16.73l.46,0a11.31,11.31,0,0,1-.24,22.61Z" fill="#000000"/><path class="cls-1" d="M561.55,64.11H547.06v45.48h14.49a22.74,22.74,0,0,0,22.74-22.74h0A22.74,22.74,0,0,0,561.55,64.11Zm0,40.48H552.2V69.11h9.35a17.74,17.74,0,1,1,0,35.48Z" fill="#000000"/><path class="cls-1" d="M355.06,92.77l-1.24-3-5.65-13.47L346.3,71.9l-1.88,4.44h0l-5.65,13.47-1.24,3-4.32,10.28,3.18,1.33,4.88-11.61h10.06l4.88,11.61,3.17-1.33Zm-12.55-3,3.79-9,3.79,9Z" fill="#000000"/><path class="cls-1" d="M246.07,31.32c-1.93.17-3.69,2.58-5.94,4.59S230,38,226.31,38.48s-6.75,3.45-8.36,6.59.64,8,.56,8.59-3.78,3-3.78,3c0,.8,2.66,1.12,3.94.64s2.49-2.49,3.67-2.81,3.24,3.29,6,3.45,5.71.65,12-3.93a19.9,19.9,0,0,0,7.95-14.39C248.64,36.31,248,31.16,246.07,31.32ZM241.49,48c-2.41,4.34-6.83,7.47-9.4,7.15s-1.53-2.33-4.58-2.41l-3-.08s-2.41-3-2.09-5.38.56-5,2.89-5.87,12.94-1.93,16.63-3.54C241.89,37.91,243.9,43.7,241.49,48Z" fill="#000000"/></g></g></svg>