<svg xmlns="http://www.w3.org/2000/svg" version="1.1" xmlns:xlink="http://www.w3.org/1999/xlink" width="512" height="512" x="0" y="0" viewBox="0 0 512 512" style="enable-background:new 0 0 512 512" xml:space="preserve" class=""><g><path d="M256 38.692c-92.497 0-167.748 75.251-167.748 167.747S163.503 374.187 256 374.187s167.748-75.251 167.748-167.747S348.497 38.692 256 38.692zm0 315.495c-81.469 0-147.748-66.279-147.748-147.747S174.531 58.692 256 58.692s147.748 66.279 147.748 147.747S337.469 354.187 256 354.187zm216.459 76.457-55.69-96.456c27.945-35.096 44.67-79.503 44.67-127.748C461.439 93.16 369.28 1 256 1S50.561 93.16 50.561 206.439c0 48.245 16.725 92.652 44.67 127.748l-55.69 96.456a10 10 0 0 0 11.756 14.509l82.361-26.811 17.962 84.732a10 10 0 0 0 18.443 2.926l55.635-96.361a206.181 206.181 0 0 0 60.606 0L341.938 506a10 10 0 0 0 18.443-2.926l17.962-84.732 82.361 26.811a9.999 9.999 0 0 0 11.755-14.509zm-306.681 42.777-14.861-70.104a10.002 10.002 0 0 0-12.878-7.435l-68.142 22.182 39.3-68.068c25.893 26.474 58.857 46.002 95.813 55.475zM70.561 206.439C70.561 104.188 153.749 21 256 21s185.439 83.188 185.439 185.439S358.251 391.877 256 391.877 70.561 308.69 70.561 206.439zM373.96 395.883a10.003 10.003 0 0 0-12.878 7.435l-14.861 70.104-39.232-67.95c36.956-9.473 69.919-29.001 95.813-55.475l39.3 68.068zm2.744-217.497a10 10 0 0 0-8.872-6.89l-74.854-4.789-27.685-69.709a10 10 0 0 0-18.588 0l-27.685 69.709-74.854 4.789a10.002 10.002 0 0 0-5.744 17.678l57.743 47.871-18.577 72.668a9.998 9.998 0 0 0 3.811 10.566 9.998 9.998 0 0 0 11.227.359L256 280.517l63.372 40.122a9.99 9.99 0 0 0 5.349 1.551 10.002 10.002 0 0 0 9.689-12.476l-18.577-72.668 57.743-47.871a10.003 10.003 0 0 0 3.128-10.789zm-78.51 47.303a10 10 0 0 0-3.306 10.175l13.909 54.407-47.447-30.04a9.999 9.999 0 0 0-10.698 0l-47.447 30.04 13.909-54.407a10 10 0 0 0-3.306-10.175l-43.233-35.842 56.044-3.586a10 10 0 0 0 8.655-6.288L256 127.781l20.728 52.192a10 10 0 0 0 8.655 6.288l56.044 3.586z" fill="#ab8756" opacity="1" data-original="#000000" class=""></path></g></svg>