<svg xmlns="http://www.w3.org/2000/svg" version="1.1" xmlns:xlink="http://www.w3.org/1999/xlink" width="512" height="512" x="0" y="0" viewBox="0 0 512 512" style="enable-background:new 0 0 512 512" xml:space="preserve" class=""><g><path d="M413.889 414.6c70.378-70.377 85.623-180.114 37.074-266.86a16 16 0 1 1 27.924-15.628 257.046 257.046 0 0 1 30.218 158.006 255.315 255.315 0 0 1-243.116 221.688q-5.04.2-10.064.2a254.368 254.368 0 0 1-140.756-42.32l4.93 22.376a16 16 0 1 1-31.251 6.884L73.1 427.433a16 16 0 0 1 15.853-19.441l76.224 1.087a16 16 0 1 1-.456 32l-35.453-.5c87.216 60.074 208.323 50.321 284.621-25.979zM3.049 222.146a257.2 257.2 0 0 0 28.9 157.065 16 16 0 0 0 28.07-15.363C12.76 277.493 28.423 168.511 98.111 98.822 174.14 22.793 292.7 12.708 379.812 70.86l-30.605-.436a16 16 0 1 0-.457 32l76.225 1.087h.228a16 16 0 0 0 15.625-19.442l-15.752-71.511a16 16 0 0 0-31.251 6.884l5.76 26.148A255.335 255.335 0 0 0 3.049 222.146zM256 409.5c-84.64 0-153.5-68.86-153.5-153.5S171.36 102.5 256 102.5 409.5 171.36 409.5 256 340.641 409.5 256 409.5zm-44.957-144.585a60.6 60.6 0 1 1 89.963-.058 105.628 105.628 0 0 1 54.527 60.743 121.5 121.5 0 1 0-199.053.018 106 106 0 0 1 54.563-60.703zM256 195.727a28.6 28.6 0 1 0 28.6 28.6 28.632 28.632 0 0 0-28.6-28.6zm-72.968 157.359a121.251 121.251 0 0 0 145.941 0c-3.539-37.252-35.4-66.3-72.973-66.3a73.471 73.471 0 0 0-72.968 66.3z" fill="#ffffff" opacity="1" data-original="#000000" class=""></path></g></svg>