<svg xmlns="http://www.w3.org/2000/svg" version="1.1" xmlns:xlink="http://www.w3.org/1999/xlink" xmlns:svgjs="http://svgjs.com/svgjs" width="512" height="512" x="0" y="0" viewBox="0 0 64 64" style="enable-background:new 0 0 512 512" xml:space="preserve" class=""><g><path d="M52 1H12a5.006 5.006 0 0 0-5 5v52a5.006 5.006 0 0 0 5 5h40a5.006 5.006 0 0 0 5-5V6a5.006 5.006 0 0 0-5-5zm3 57a3 3 0 0 1-3 3H12a3 3 0 0 1-3-3V6a3 3 0 0 1 3-3h40a3 3 0 0 1 3 3z" fill="#ffffff" data-original="#000000" class="" opacity="1"></path><path d="M48 7H16a1 1 0 0 0-1 1v48a1 1 0 0 0 1 1h32a1 1 0 0 0 1-1V8a1 1 0 0 0-1-1zM17 9h7.017A17.114 17.114 0 0 0 17 16.017zm0 46V31.983a16.956 16.956 0 0 0 26 4.95V42a1 1 0 0 0-1 1v2a.946.946 0 0 0 .01.141l1 7A1 1 0 0 0 44 53h3v2zm27-11h3v7h-2.134L44 44.929zm3-2h-2V24a13.046 13.046 0 1 0-2 6.9v3.28A14.984 14.984 0 1 1 47 24zm-4-18a11 11 0 1 1-11-11 11.013 11.013 0 0 1 11 11zM39.983 9H47v7.017A17.114 17.114 0 0 0 39.983 9zM51 29h2v5.999h-2z" fill="#ffffff" data-original="#000000" class="" opacity="1"></path><path d="M32 19a5 5 0 1 0 5 5 5.006 5.006 0 0 0-5-5zm0 8a3 3 0 1 1 3-3 3 3 0 0 1-3 3z" fill="#ffffff" data-original="#000000" class="" opacity="1"></path><path d="M32 15a9 9 0 1 0 9 9 9.01 9.01 0 0 0-9-9zm0 16a7 7 0 1 1 7-7 7.008 7.008 0 0 1-7 7z" fill="#ffffff" data-original="#000000" class="" opacity="1"></path></g></svg>